  0
SECTION
  2
HEADER
  9
$ACADVER
  1
AC1009
  9
$INSBASE
 10
0.0
 20
0.0
 30
0.0
  9
$EXTMIN
 10
-24.2539062587948209
 20
-2.41968694477668
 30
0.0
  9
$EXTMAX
 10
1823.8470187931300188
 20
2043.0454242541670737
 30
0.0
  9
$LIMMIN
 10
0.0
 20
0.0
  9
$LIMMAX
 10
420.0
 20
297.0
  9
$ORTHOMODE
 70
     0
  9
$REGENMODE
 70
     1
  9
$FILLMODE
 70
     1
  9
$QTEXTMODE
 70
     0
  9
$MIRRTEXT
 70
     0
  9
$DRAGMODE
 70
     2
  9
$LTSCALE
 40
1.0
  9
$OSMODE
 70
   167
  9
$ATTMODE
 70
     1
  9
$TEXTSIZE
 40
2.5
  9
$TRACEWID
 40
1.0
  9
$TEXTSTYLE
  7
STANDARD
  9
$CLAYER
  8
LAYER1
  9
$CELTYPE
  6
BYLAYER
  9
$CECOLOR
 62
   256
  9
$DIMSCALE
 40
1.0
  9
$DIMASZ
 40
2.5
  9
$DIMEXO
 40
0.625
  9
$DIMDLI
 40
3.75
  9
$DIMRND
 40
0.0
  9
$DIMDLE
 40
0.0
  9
$DIMEXE
 40
1.25
  9
$DIMTP
 40
0.0
  9
$DIMTM
 40
0.0
  9
$DIMTXT
 40
2.5
  9
$DIMCEN
 40
2.5
  9
$DIMTSZ
 40
0.0
  9
$DIMTOL
 70
     0
  9
$DIMLIM
 70
     0
  9
$DIMTIH
 70
     0
  9
$DIMTOH
 70
     0
  9
$DIMSE1
 70
     0
  9
$DIMSE2
 70
     0
  9
$DIMTAD
 70
     1
  9
$DIMZIN
 70
     8
  9
$DIMBLK
  1

  9
$DIMASO
 70
     1
  9
$DIMSHO
 70
     1
  9
$DIMPOST
  1

  9
$DIMAPOST
  1

  9
$DIMALT
 70
     0
  9
$DIMALTD
 70
     3
  9
$DIMALTF
 40
0.03937007874016
  9
$DIMLFAC
 40
1.0
  9
$DIMTOFL
 70
     1
  9
$DIMTVP
 40
0.0
  9
$DIMTIX
 70
     0
  9
$DIMSOXD
 70
     0
  9
$DIMSAH
 70
     0
  9
$DIMBLK1
  1

  9
$DIMBLK2
  1

  9
$DIMSTYLE
  2
ISO-25
  9
$DIMCLRD
 70
     0
  9
$DIMCLRE
 70
     0
  9
$DIMCLRT
 70
     0
  9
$DIMTFAC
 40
1.0
  9
$DIMGAP
 40
0.625
  9
$LUNITS
 70
     2
  9
$LUPREC
 70
     4
  9
$SKETCHINC
 40
1.0
  9
$FILLETRAD
 40
5.0
  9
$AUNITS
 70
     0
  9
$AUPREC
 70
     0
  9
$MENU
  1
.
  9
$ELEVATION
 40
0.0
  9
$PELEVATION
 40
0.0
  9
$THICKNESS
 40
0.0
  9
$LIMCHECK
 70
     0
  9
$BLIPMODE
 70
     0
  9
$CHAMFERA
 40
0.0
  9
$CHAMFERB
 40
0.0
  9
$SKPOLY
 70
     0
  9
$TDCREATE
 40
2458025.9901967588812113
  9
$TDUPDATE
 40
2458026.006030092947185
  9
$TDINDWG
 40
0.0158333333
  9
$TDUSRTIMER
 40
0.0158333333
  9
$USRTIMER
 70
     1
  9
$ANGBASE
 50
0.0
  9
$ANGDIR
 70
     0
  9
$PDMODE
 70
     0
  9
$PDSIZE
 40
0.0
  9
$PLINEWID
 40
0.0
  9
$COORDS
 70
     1
  9
$SPLFRAME
 70
     0
  9
$SPLINETYPE
 70
     6
  9
$SPLINESEGS
 70
     8
  9
$ATTDIA
 70
     1
  9
$ATTREQ
 70
     1
  9
$HANDLING
 70
     1
  9
$HANDSEED
  5
4A7
  9
$SURFTAB1
 70
     6
  9
$SURFTAB2
 70
     6
  9
$SURFTYPE
 70
     6
  9
$SURFU
 70
     6
  9
$SURFV
 70
     6
  9
$UCSNAME
  2

  9
$UCSORG
 10
0.0
 20
0.0
 30
0.0
  9
$UCSXDIR
 10
1.0
 20
0.0
 30
0.0
  9
$UCSYDIR
 10
0.0
 20
1.0
 30
0.0
  9
$PUCSNAME
  2

  9
$PUCSORG
 10
0.0
 20
0.0
 30
0.0
  9
$PUCSXDIR
 10
1.0
 20
0.0
 30
0.0
  9
$PUCSYDIR
 10
0.0
 20
1.0
 30
0.0
  9
$USERI1
 70
     0
  9
$USERI2
 70
     0
  9
$USERI3
 70
     0
  9
$USERI4
 70
     0
  9
$USERI5
 70
     0
  9
$USERR1
 40
0.0
  9
$USERR2
 40
0.0
  9
$USERR3
 40
0.0
  9
$USERR4
 40
0.0
  9
$USERR5
 40
0.0
  9
$WORLDVIEW
 70
     1
  9
$SHADEDGE
 70
     3
  9
$SHADEDIF
 70
    70
  9
$TILEMODE
 70
     1
  9
$MAXACTVP
 70
    64
  9
$PLIMCHECK
 70
     0
  9
$PEXTMIN
 10
0.0
 20
0.0
 30
0.0
  9
$PEXTMAX
 10
0.0
 20
0.0
 30
0.0
  9
$PLIMMIN
 10
0.0
 20
0.0
  9
$PLIMMAX
 10
12.0
 20
9.0
  9
$UNITMODE
 70
     0
  9
$VISRETAIN
 70
     1
  9
$PLINEGEN
 70
     0
  9
$PSLTSCALE
 70
     1
  0
ENDSEC
  0
SECTION
  2
TABLES
  0
TABLE
  2
VPORT
 70
     1
  0
VPORT
  2
*ACTIVE
 70
     0
 10
0.0
 20
0.0
 11
1.0
 21
1.0
 12
17.0525720327185013
 22
14.0565647247985908
 13
0.0
 23
0.0
 14
10.0
 24
10.0
 15
10.0
 25
10.0
 16
0.0
 26
0.0
 36
1.0
 17
0.0
 27
0.0
 37
0.0
 40
64.646570716819042
 41
2.318681318681318
 42
50.0
 43
0.0
 44
0.0
 50
0.0
 51
0.0
 71
     0
 72
  1000
 73
     1
 74
     3
 75
     0
 76
     1
 77
     0
 78
     0
  0
ENDTAB
  0
TABLE
  2
LTYPE
 70
     4
  0
LTYPE
  2
CONTINUOUS
 70
     0
  3
Solid line
 72
    65
 73
     0
 40
0.0
  0
LTYPE
  2
ACAD_ISO02W100
 70
     0
  3
ISO dash __ __ __ __ __ __ __ __ __ __ __ __ __
 72
    65
 73
     2
 40
15.0
 49
12.0
 49
-3.0
  0
ENDTAB
  0
TABLE
  2
LAYER
 70
     2
  0
LAYER
  2
0
 70
     0
 62
     7
  6
CONTINUOUS
  0
LAYER
  2
LAYER1
 70
     0
 62
    10
  6
ACAD_ISO02W100
  0
ENDTAB
  0
TABLE
  2
STYLE
 70
     3
  0
STYLE
  2
STANDARD
 70
     0
 40
0.0
 41
1.0
 50
0.0
 71
     0
 42
2.5
  3
txt
  4

  0
STYLE
  2
ANNOTATIVE
 70
     0
 40
0.0
 41
1.0
 50
0.0
 71
     0
 42
2.5
  3
txt
  4

  0
STYLE
  2

 70
     1
 40
0.0
 41
1.0
 50
0.0
 71
     0
 42
2.5
  3
ltypeshp.shx
  4

  0
ENDTAB
  0
TABLE
  2
VIEW
 70
     0
  0
ENDTAB
  0
TABLE
  2
UCS
 70
     0
  0
ENDTAB
  0
TABLE
  2
APPID
 70
    13
  0
APPID
  2
ACAD
 70
     0
  0
APPID
  2
ACAD_PSEXT
 70
     0
  0
APPID
  2
ACADANNOPO
 70
     0
  0
APPID
  2
ACADANNOTATIVE
 70
     0
  0
APPID
  2
ACAD_DSTYLE_DIMJAG
 70
     0
  0
APPID
  2
ACAD_DSTYLE_DIMTALN
 70
     0
  0
APPID
  2
ACAD_MLEADERVER
 70
     0
  0
APPID
  2
ACAD_NAV_VCDISPLAY
 70
     0
  0
APPID
  2
ACAD_EXEMPT_FROM_CAD_STANDARDS
 70
     0
  0
APPID
  2
ACAECLAYERSTANDARD
 70
     0
  0
APPID
  2
ACCMTRANSPARENCY
 70
     0
  0
APPID
  2
GRADIENTCOLOR1ACI
 70
     0
  0
APPID
  2
GRADIENTCOLOR2ACI
 70
     0
  0
ENDTAB
  0
TABLE
  2
DIMSTYLE
 70
     4
  0
DIMSTYLE
  2
STANDARD
 70
     0
  3

  4

  5

  6

  7

 40
1.0
 41
0.18
 42
0.0625
 43
0.38
 44
0.18
 45
0.0
 46
0.0
 47
0.0
 48
0.0
140
0.18
141
0.09
142
0.0
143
25.3999999999999986
144
1.0
145
0.0
146
1.0
147
0.09
 71
     0
 72
     0
 73
     1
 74
     1
 75
     0
 76
     0
 77
     0
 78
     0
170
     0
171
     2
172
     0
173
     0
174
     0
175
     0
176
     0
177
     0
178
     0
  0
DIMSTYLE
  2
ANNOTATIVE
 70
     0
  3

  4

  5

  6

  7

 40
0.0
 41
2.5
 42
0.625
 43
3.75
 44
1.25
 45
0.0
 46
0.0
 47
0.0
 48
0.0
140
2.5
141
2.5
142
0.0
143
0.03937007874016
144
1.0
145
0.0
146
1.0
147
0.625
 71
     0
 72
     0
 73
     0
 74
     0
 75
     0
 76
     0
 77
     1
 78
     8
170
     0
171
     3
172
     1
173
     0
174
     0
175
     0
176
     0
177
     0
178
     0
  0
DIMSTYLE
  2
ISO-25
 70
     0
  3

  4

  5

  6

  7

 40
1.0
 41
2.5
 42
0.625
 43
3.75
 44
1.25
 45
0.0
 46
0.0
 47
0.0
 48
0.0
140
2.5
141
2.5
142
0.0
143
0.03937007874016
144
1.0
145
0.0
146
1.0
147
0.625
 71
     0
 72
     0
 73
     0
 74
     0
 75
     0
 76
     0
 77
     1
 78
     8
170
     0
171
     3
172
     1
173
     0
174
     0
175
     0
176
     0
177
     0
178
     0
  0
ENDTAB
  0
ENDSEC
  0
SECTION
  2
BLOCKS
  0
BLOCK
  8
0
  2
$MODEL_SPACE
 70
     0
 10
0.0
 20
0.0
 30
0.0
  3
$MODEL_SPACE
  1

  0
ENDBLK
  5
21
  8
0
  0
BLOCK
 67
     1
  8
0
  2
$PAPER_SPACE
 70
     0
 10
0.0
 20
0.0
 30
0.0
  3
$PAPER_SPACE
  1

  0
ENDBLK
  5
D5
 67
     1
  8
0
  0
BLOCK
  8
0
  2
*U2
 70
     1
 10
0.0
 20
0.0
 30
0.0
  3
*U2
  1

  0
TEXT
  5
387
  8
LAYER1
 62
     0
 10
4.3904300101376714
 20
3.839215869468716
 30
0.0
 40
12.0
  1
R
  0
ENDBLK
  5
389
  8
0
  0
BLOCK
  8
0
  2
*U3
 70
     1
 10
0.0
 20
0.0
 30
0.0
  3
*U3
  1

  0
SOLID
  5
39D
  8
LAYER1
  6
CONTINUOUS
 62
     0
 10
-4.9999999999999583
 20
20.0
 30
0.0
 11
-15.7712473611884398
 21
19.9240387650610415
 31
0.0
 12
-4.1317591116653469
 22
19.9240387650610415
 32
0.0
 13
-4.1317591116653469
 23
19.9240387650610415
 33
0.0
210
0.0
220
0.0
230
-1.0
  0
SOLID
  5
39E
  8
LAYER1
  6
CONTINUOUS
 62
     0
 10
-4.9999999999999583
 20
20.0
 30
0.0
 11
-15.0
 21
20.0
 31
0.0
 12
-15.7712473611884398
 22
19.9240387650610415
 32
0.0
 13
-15.7712473611884398
 23
19.9240387650610415
 33
0.0
210
0.0
220
0.0
230
-1.0
  0
SOLID
  5
39F
  8
LAYER1
  6
CONTINUOUS
 62
     0
 10
-4.1317591116653469
 20
19.9240387650610415
 30
0.0
 11
-15.9754516100806399
 21
19.9039264020161504
 31
0.0
 12
-4.0566987509215551
 22
19.9039264020161504
 32
0.0
 13
-4.0566987509215551
 23
19.9039264020161504
 33
0.0
210
0.0
220
0.0
230
-1.0
  0
SOLID
  5
3A0
  8
LAYER1
  6
CONTINUOUS
 62
     0
 10
-4.1317591116653469
 20
19.9240387650610415
 30
0.0
 11
-15.7712473611884398
 21
19.9240387650610415
 31
0.0
 12
-15.9754516100806399
 22
19.9039264020161504
 32
0.0
 13
-15.9754516100806399
 23
19.9039264020161504
 33
0.0
210
0.0
220
0.0
230
-1.0
  0
SOLID
  5
3A1
  8
LAYER1
  6
CONTINUOUS
 62
     0
 10
-4.0566987509215551
 20
19.9039264020161504
 30
0.0
 11
-16.6527733320235889
 21
19.6984631039295408
 31
0.0
 12
-3.289899283371656
 22
19.6984631039295408
 32
0.0
 13
-3.289899283371656
 23
19.6984631039295408
 33
0.0
210
0.0
220
0.0
230
-1.0
  0
SOLID
  5
3A2
  8
LAYER1
  6
CONTINUOUS
 62
     0
 10
-4.0566987509215551
 20
19.9039264020161504
 30
0.0
 11
-15.9754516100806399
 21
19.9039264020161504
 31
0.0
 12
-16.6527733320235889
 22
19.6984631039295408
 32
0.0
 13
-16.6527733320235889
 23
19.6984631039295408
 33
0.0
210
0.0
220
0.0
230
-1.0
  0
SOLID
  5
3A3
  8
LAYER1
  6
CONTINUOUS
 62
     0
 10
-3.289899283371656
 20
19.6984631039295408
 30
0.0
 11
-16.9134171618254499
 21
19.6193976625564304
 31
0.0
 12
-3.120342897173876
 22
19.6193976625564304
 32
0.0
 13
-3.120342897173876
 23
19.6193976625564304
 33
0.0
210
0.0
220
0.0
230
-1.0
  0
SOLID
  5
3A4
  8
LAYER1
  6
CONTINUOUS
 62
     0
 10
-3.289899283371656
 20
19.6984631039295408
 30
0.0
 11
-16.6527733320235889
 21
19.6984631039295408
 31
0.0
 12
-16.9134171618254499
 22
19.6193976625564304
 32
0.0
 13
-16.9134171618254499
 23
19.6193976625564304
 33
0.0
210
0.0
220
0.0
230
-1.0
  0
SOLID
  5
3A5
  8
LAYER1
  6
CONTINUOUS
 62
     0
 10
-3.120342897173876
 20
19.6193976625564304
 30
0.0
 11
-17.4546044714587296
 21
19.3301270189222016
 31
0.0
 12
-2.5
 22
19.3301270189222016
 32
0.0
 13
-2.5
 23
19.3301270189222016
 33
0.0
210
0.0
220
0.0
230
-1.0
  0
SOLID
  5
3A6
  8
LAYER1
  6
CONTINUOUS
 62
     0
 10
-3.120342897173876
 20
19.6193976625564304
 30
0.0
 11
-16.9134171618254499
 21
19.6193976625564304
 31
0.0
 12
-17.4546044714587296
 22
19.3301270189222016
 32
0.0
 13
-17.4546044714587296
 23
19.3301270189222016
 33
0.0
210
0.0
220
0.0
230
-1.0
  0
SOLID
  5
3A7
  8
LAYER1
  6
CONTINUOUS
 62
     0
 10
-2.5
 20
19.3301270189222016
 30
0.0
 11
-17.77785116509801
 21
19.1573480615127316
 31
0.0
 12
-2.253246076368685
 22
19.1573480615127316
 32
0.0
 13
-2.253246076368685
 23
19.1573480615127316
 33
0.0
210
0.0
220
0.0
230
-1.0
  0
SOLID
  5
3A8
  8
LAYER1
  6
CONTINUOUS
 62
     0
 10
-2.5
 20
19.3301270189222016
 30
0.0
 11
-17.4546044714587296
 21
19.3301270189222016
 31
0.0
 12
-17.77785116509801
 22
19.1573480615127316
 32
0.0
 13
-17.77785116509801
 23
19.1573480615127316
 33
0.0
210
0.0
220
0.0
230
-1.0
  0
SOLID
  5
3A9
  8
LAYER1
  6
CONTINUOUS
 62
     0
 10
-2.253246076368685
 20
19.1573480615127316
 30
0.0
 11
-18.1764551616598418
 21
18.8302222155948904
 31
0.0
 12
-1.7860619515673031
 22
18.8302222155948904
 32
0.0
 13
-1.7860619515673031
 23
18.8302222155948904
 33
0.0
210
0.0
220
0.0
230
-1.0
  0
SOLID
  5
3AA
  8
LAYER1
  6
CONTINUOUS
 62
     0
 10
-2.253246076368685
 20
19.1573480615127316
 30
0.0
 11
-17.77785116509801
 21
19.1573480615127316
 31
0.0
 12
-18.1764551616598418
 22
18.8302222155948904
 32
0.0
 13
-18.1764551616598418
 23
18.8302222155948904
 33
0.0
210
0.0
220
0.0
230
-1.0
  0
SOLID
  5
3AB
  8
LAYER1
  6
CONTINUOUS
 62
     0
 10
-1.7860619515673031
 20
18.8302222155948904
 30
0.0
 11
-18.5355339059327413
 21
18.5355339059327413
 31
0.0
 12
-1.491373641905146
 22
18.5355339059327413
 32
0.0
 13
-1.491373641905146
 23
18.5355339059327413
 33
0.0
210
0.0
220
0.0
230
-1.0
  0
SOLID
  5
3AC
  8
LAYER1
  6
CONTINUOUS
 62
     0
 10
-1.7860619515673031
 20
18.8302222155948904
 30
0.0
 11
-18.1764551616598418
 21
18.8302222155948904
 31
0.0
 12
-18.5355339059327413
 22
18.5355339059327413
 32
0.0
 13
-18.5355339059327413
 23
18.5355339059327413
 33
0.0
210
0.0
220
0.0
230
-1.0
  0
SOLID
  5
3AD
  8
LAYER1
  6
CONTINUOUS
 62
     0
 10
-1.491373641905146
 20
18.5355339059327413
 30
0.0
 11
-18.5646958288870287
 21
18.5
 31
0.0
 12
-1.4558397359724089
 22
18.5
 32
0.0
 13
-1.4558397359724089
 23
18.5
 33
0.0
210
0.0
220
0.0
230
-1.0
  0
SOLID
  5
3AE
  8
LAYER1
  6
CONTINUOUS
 62
     0
 10
-1.491373641905146
 20
18.5355339059327413
 30
0.0
 11
-18.5355339059327413
 21
18.5355339059327413
 31
0.0
 12
-18.5646958288870287
 22
18.5
 32
0.0
 13
-18.5646958288870287
 23
18.5
 33
0.0
210
0.0
220
0.0
230
-1.0
  0
SOLID
  5
3AF
  8
LAYER1
  6
CONTINUOUS
 62
     0
 10
-1.4558397359724089
 20
18.5
 30
0.0
 11
-4.3922313781657421
 21
18.4468271355427298
 31
0.0
 12
-1.402666871515142
 22
18.4468271355427298
 32
0.0
 13
-1.402666871515142
 23
18.4468271355427298
 33
0.0
210
0.0
220
0.0
230
-1.0
  0
SOLID
  5
3B0
  8
LAYER1
  6
CONTINUOUS
 62
     0
 10
-1.4558397359724089
 20
18.5
 30
0.0
 11
-4.9999999999999583
 21
18.5
 31
0.0
 12
-4.3922313781657421
 22
18.4468271355427298
 32
0.0
 13
-4.3922313781657421
 23
18.4468271355427298
 33
0.0
210
0.0
220
0.0
230
-1.0
  0
SOLID
  5
3B1
  8
LAYER1
  6
CONTINUOUS
 62
     0
 10
-15.0
 20
18.5
 30
0.0
 11
-18.6198877238437994
 21
18.4327484814112985
 31
0.0
 12
-15.6828161270564497
 22
18.4327484814112985
 32
0.0
 13
-15.6828161270564497
 23
18.4327484814112985
 33
0.0
210
0.0
220
0.0
230
-1.0
  0
SOLID
  5
3B2
  8
LAYER1
  6
CONTINUOUS
 62
     0
 10
-15.0
 20
18.5
 30
0.0
 11
-18.5646958288870287
 21
18.5
 31
0.0
 12
-18.6198877238437994
 22
18.4327484814112985
 32
0.0
 13
-18.6198877238437994
 23
18.4327484814112985
 33
0.0
210
0.0
220
0.0
230
-1.0
  0
SOLID
  5
3B3
  8
LAYER1
  6
CONTINUOUS
 62
     0
 10
-1.402666871515142
 20
18.4468271355427298
 30
0.0
 11
-3.8029294983601591
 21
18.2889241727506793
 31
0.0
 12
-1.2447639087230911
 22
18.2889241727506793
 32
0.0
 13
-1.2447639087230911
 23
18.2889241727506793
 33
0.0
210
0.0
220
0.0
230
-1.0
  0
SOLID
  5
3B4
  8
LAYER1
  6
CONTINUOUS
 62
     0
 10
-1.402666871515142
 20
18.4468271355427298
 30
0.0
 11
-4.3922313781657421
 21
18.4468271355427298
 31
0.0
 12
-3.8029294983601591
 22
18.2889241727506793
 32
0.0
 13
-3.8029294983601591
 23
18.2889241727506793
 33
0.0
210
0.0
220
0.0
230
-1.0
  0
SOLID
  5
3B5
  8
LAYER1
  6
CONTINUOUS
 62
     0
 10
-15.6828161270564497
 20
18.4327484814112985
 30
0.0
 11
-18.7833424151428616
 21
18.2335783637895013
 31
0.0
 12
-16.3393920132778092
 22
18.2335783637895013
 32
0.0
 13
-16.3393920132778092
 23
18.2335783637895013
 33
0.0
210
0.0
220
0.0
230
-1.0
  0
SOLID
  5
3B6
  8
LAYER1
  6
CONTINUOUS
 62
     0
 10
-15.6828161270564497
 20
18.4327484814112985
 30
0.0
 11
-18.6198877238437994
 21
18.4327484814112985
 31
0.0
 12
-18.7833424151428616
 22
18.2335783637895013
 32
0.0
 13
-18.7833424151428616
 23
18.2335783637895013
 33
0.0
210
0.0
220
0.0
230
-1.0
  0
SOLID
  5
3B7
  8
LAYER1
  6
CONTINUOUS
 62
     0
 10
-1.2447639087230911
 20
18.2889241727506793
 30
0.0
 11
-3.6421212358180579
 21
18.2139380484326985
 31
0.0
 12
-1.16977778440511
 22
18.2139380484326985
 32
0.0
 13
-1.16977778440511
 23
18.2139380484326985
 33
0.0
210
0.0
220
0.0
230
-1.0
  0
SOLID
  5
3B8
  8
LAYER1
  6
CONTINUOUS
 62
     0
 10
-1.2447639087230911
 20
18.2889241727506793
 30
0.0
 11
-3.8029294983601591
 21
18.2889241727506793
 31
0.0
 12
-3.6421212358180579
 22
18.2139380484326985
 32
0.0
 13
-3.6421212358180579
 23
18.2139380484326985
 33
0.0
210
0.0
220
0.0
230
-1.0
  0
SOLID
  5
3B9
  8
LAYER1
  6
CONTINUOUS
 62
     0
 10
-1.16977778440511
 20
18.2139380484326985
 30
0.0
 11
-3.25
 21
18.0310889132455401
 31
0.0
 12
-1.0417454415919329
 22
18.0310889132455401
 32
0.0
 13
-1.0417454415919329
 23
18.0310889132455401
 33
0.0
210
0.0
220
0.0
230
-1.0
  0
SOLID
  5
3BA
  8
LAYER1
  6
CONTINUOUS
 62
     0
 10
-1.16977778440511
 20
18.2139380484326985
 30
0.0
 11
-3.6421212358180579
 21
18.2139380484326985
 31
0.0
 12
-3.25
 22
18.0310889132455401
 32
0.0
 13
-3.25
 23
18.0310889132455401
 33
0.0
210
0.0
220
0.0
230
-1.0
  0
SOLID
  5
3BB
  8
LAYER1
  6
CONTINUOUS
 62
     0
 10
-16.3393920132778092
 20
18.2335783637895013
 30
0.0
 11
-19.0487784306640506
 21
17.9101436430589089
 31
0.0
 12
-16.9444958155686116
 22
17.9101436430589089
 32
0.0
 13
-16.9444958155686116
 23
17.9101436430589089
 33
0.0
210
0.0
220
0.0
230
-1.0
  0
SOLID
  5
3BC
  8
LAYER1
  6
CONTINUOUS
 62
     0
 10
-16.3393920132778092
 20
18.2335783637895013
 30
0.0
 11
-18.7833424151428616
 21
18.2335783637895013
 31
0.0
 12
-19.0487784306640506
 22
17.9101436430589089
 32
0.0
 13
-19.0487784306640506
 23
17.9101436430589089
 33
0.0
210
0.0
220
0.0
230
-1.0
  0
SOLID
  5
3BD
  8
LAYER1
  6
CONTINUOUS
 62
     0
 10
-16.9444958155686116
 20
17.9101436430589089
 30
0.0
 11
-19.1573480615127316
 21
17.77785116509801
 31
0.0
 12
-17.1056946663727309
 22
17.77785116509801
 32
0.0
 13
-17.1056946663727309
 23
17.77785116509801
 33
0.0
210
0.0
220
0.0
230
-1.0
  0
SOLID
  5
3BE
  8
LAYER1
  6
CONTINUOUS
 62
     0
 10
-16.9444958155686116
 20
17.9101436430589089
 30
0.0
 11
-19.0487784306640506
 21
17.9101436430589089
 31
0.0
 12
-19.1573480615127316
 22
17.77785116509801
 32
0.0
 13
-19.1573480615127316
 23
17.77785116509801
 33
0.0
210
0.0
220
0.0
230
-1.0
  0
SOLID
  5
3BF
  8
LAYER1
  6
CONTINUOUS
 62
     0
 10
-1.0417454415919329
 20
18.0310889132455401
 30
0.0
 11
-2.750243366097112
 21
17.6811555509164187
 31
0.0
 12
-0.7967194634180187
 22
17.6811555509164187
 32
0.0
 13
-0.7967194634180187
 23
17.6811555509164187
 33
0.0
210
0.0
220
0.0
230
-1.0
  0
SOLID
  5
3C0
  8
LAYER1
  6
CONTINUOUS
 62
     0
 10
-1.0417454415919329
 20
18.0310889132455401
 30
0.0
 11
-3.25
 21
18.0310889132455401
 31
0.0
 12
-2.750243366097112
 22
17.6811555509164187
 32
0.0
 13
-2.750243366097112
 23
17.6811555509164187
 33
0.0
210
0.0
220
0.0
230
-1.0
  0
SOLID
  5
3C1
  8
LAYER1
  6
CONTINUOUS
 62
     0
 10
-0.7967194634180187
 20
17.6811555509164187
 30
0.0
 11
-2.5690878151806902
 21
17.5
 31
0.0
 12
-0.6698729810778074
 22
17.5
 32
0.0
 13
-0.6698729810778074
 23
17.5
 33
0.0
210
0.0
220
0.0
230
-1.0
  0
SOLID
  5
3C2
  8
LAYER1
  6
CONTINUOUS
 62
     0
 10
-0.7967194634180187
 20
17.6811555509164187
 30
0.0
 11
-2.750243366097112
 21
17.6811555509164187
 31
0.0
 12
-2.5690878151806902
 22
17.5
 32
0.0
 13
-2.5690878151806902
 23
17.5
 33
0.0
210
0.0
220
0.0
230
-1.0
  0
SOLID
  5
3C3
  8
LAYER1
  6
CONTINUOUS
 62
     0
 10
-17.1056946663727309
 20
17.77785116509801
 30
0.0
 11
-19.3192928722946391
 21
17.4748737341529115
 31
0.0
 12
-17.4748737341529115
 22
17.4748737341529115
 32
0.0
 13
-17.4748737341529115
 23
17.4748737341529115
 33
0.0
210
0.0
220
0.0
230
-1.0
  0
SOLID
  5
3C4
  8
LAYER1
  6
CONTINUOUS
 62
     0
 10
-17.1056946663727309
 20
17.77785116509801
 30
0.0
 11
-19.1573480615127316
 21
17.77785116509801
 31
0.0
 12
-19.3192928722946391
 22
17.4748737341529115
 32
0.0
 13
-19.3192928722946391
 23
17.4748737341529115
 33
0.0
210
0.0
220
0.0
230
-1.0
  0
SOLID
  5
3C5
  8
LAYER1
  6
CONTINUOUS
 62
     0
 10
-0.6698729810778074
 20
17.5
 30
0.0
 11
-2.318844449083576
 21
17.2497566339028907
 31
0.0
 12
-0.5531825830642387
 22
17.2497566339028907
 32
0.0
 13
-0.5531825830642387
 23
17.2497566339028907
 33
0.0
210
0.0
220
0.0
230
-1.0
  0
SOLID
  5
3C6
  8
LAYER1
  6
CONTINUOUS
 62
     0
 10
-0.6698729810778074
 20
17.5
 30
0.0
 11
-2.5690878151806902
 21
17.5
 31
0.0
 12
-2.318844449083576
 22
17.2497566339028907
 32
0.0
 13
-2.318844449083576
 23
17.2497566339028907
 33
0.0
210
0.0
220
0.0
230
-1.0
  0
SOLID
  5
3C7
  8
LAYER1
  6
CONTINUOUS
 62
     0
 10
-17.4748737341529115
 20
17.4748737341529115
 30
0.0
 11
-19.6027857760403492
 21
16.9444958155686116
 31
0.0
 12
-17.9101436430589089
 22
16.9444958155686116
 32
0.0
 13
-17.9101436430589089
 23
16.9444958155686116
 33
0.0
210
0.0
220
0.0
230
-1.0
  0
SOLID
  5
3C8
  8
LAYER1
  6
CONTINUOUS
 62
     0
 10
-17.4748737341529115
 20
17.4748737341529115
 30
0.0
 11
-19.3192928722946391
 21
17.4748737341529115
 31
0.0
 12
-19.6027857760403492
 22
16.9444958155686116
 32
0.0
 13
-19.6027857760403492
 23
16.9444958155686116
 33
0.0
210
0.0
220
0.0
230
-1.0
  0
SOLID
  5
3C9
  8
LAYER1
  6
CONTINUOUS
 62
     0
 10
-17.9101436430589089
 20
16.9444958155686116
 30
0.0
 11
-19.6193976625564304
 21
16.9134171618254499
 31
0.0
 12
-17.9267555295749794
 22
16.9134171618254499
 32
0.0
 13
-17.9267555295749794
 23
16.9134171618254499
 33
0.0
210
0.0
220
0.0
230
-1.0
  0
SOLID
  5
3CA
  8
LAYER1
  6
CONTINUOUS
 62
     0
 10
-17.9101436430589089
 20
16.9444958155686116
 30
0.0
 11
-19.6027857760403492
 21
16.9444958155686116
 31
0.0
 12
-19.6193976625564304
 22
16.9134171618254499
 32
0.0
 13
-19.6193976625564304
 23
16.9134171618254499
 33
0.0
210
0.0
220
0.0
230
-1.0
  0
SOLID
  5
3CB
  8
LAYER1
  6
CONTINUOUS
 62
     0
 10
-0.5531825830642387
 20
17.2497566339028907
 30
0.0
 11
-1.9689110867544639
 21
16.75
 31
0.0
 12
-0.3201422374615583
 22
16.75
 32
0.0
 13
-0.3201422374615583
 23
16.75
 33
0.0
210
0.0
220
0.0
230
-1.0
  0
SOLID
  5
3CC
  8
LAYER1
  6
CONTINUOUS
 62
     0
 10
-0.5531825830642387
 20
17.2497566339028907
 30
0.0
 11
-2.318844449083576
 21
17.2497566339028907
 31
0.0
 12
-1.9689110867544639
 22
16.75
 32
0.0
 13
-1.9689110867544639
 23
16.75
 33
0.0
210
0.0
220
0.0
230
-1.0
  0
SOLID
  5
3CD
  8
LAYER1
  6
CONTINUOUS
 62
     0
 10
-0.3201422374615583
 20
16.75
 30
0.0
 11
-1.9503057453633641
 21
16.7101007166283395
 31
0.0
 12
-0.3015368960704583
 22
16.7101007166283395
 32
0.0
 13
-0.3015368960704583
 23
16.7101007166283395
 33
0.0
210
0.0
220
0.0
230
-1.0
  0
SOLID
  5
3CE
  8
LAYER1
  6
CONTINUOUS
 62
     0
 10
-0.3201422374615583
 20
16.75
 30
0.0
 11
-1.9689110867544639
 21
16.75
 31
0.0
 12
-1.9503057453633641
 22
16.7101007166283395
 32
0.0
 13
-1.9503057453633641
 23
16.7101007166283395
 33
0.0
210
0.0
220
0.0
230
-1.0
  0
SOLID
  5
3CF
  8
LAYER1
  6
CONTINUOUS
 62
     0
 10
-17.9267555295749794
 20
16.9134171618254499
 30
0.0
 11
-19.7935262876755687
 21
16.3393920132778092
 31
0.0
 12
-18.2335783637895013
 22
16.3393920132778092
 32
0.0
 13
-18.2335783637895013
 23
16.3393920132778092
 33
0.0
210
0.0
220
0.0
230
-1.0
  0
SOLID
  5
3D0
  8
LAYER1
  6
CONTINUOUS
 62
     0
 10
-17.9267555295749794
 20
16.9134171618254499
 30
0.0
 11
-19.6193976625564304
 21
16.9134171618254499
 31
0.0
 12
-19.7935262876755687
 22
16.3393920132778092
 32
0.0
 13
-19.7935262876755687
 23
16.3393920132778092
 33
0.0
210
0.0
220
0.0
230
-1.0
  0
SOLID
  5
3D1
  8
LAYER1
  6
CONTINUOUS
 62
     0
 10
-0.3015368960704583
 20
16.7101007166283395
 30
0.0
 11
-1.7110758272493201
 21
16.1970705016398391
 31
0.0
 12
-0.1640708642715234
 22
16.1970705016398391
 32
0.0
 13
-0.1640708642715234
 23
16.1970705016398391
 33
0.0
210
0.0
220
0.0
230
-1.0
  0
SOLID
  5
3D2
  8
LAYER1
  6
CONTINUOUS
 62
     0
 10
-0.3015368960704583
 20
16.7101007166283395
 30
0.0
 11
-1.9503057453633641
 21
16.7101007166283395
 31
0.0
 12
-1.7110758272493201
 22
16.1970705016398391
 32
0.0
 13
-1.7110758272493201
 23
16.1970705016398391
 33
0.0
210
0.0
220
0.0
230
-1.0
  0
SOLID
  5
3D3
  8
LAYER1
  6
CONTINUOUS
 62
     0
 10
-18.2335783637895013
 20
16.3393920132778092
 30
0.0
 11
-19.9039264020161504
 21
15.9754516100806399
 31
0.0
 12
-18.3439784781300794
 22
15.9754516100806399
 32
0.0
 13
-18.3439784781300794
 23
15.9754516100806399
 33
0.0
210
0.0
220
0.0
230
-1.0
  0
SOLID
  5
3D4
  8
LAYER1
  6
CONTINUOUS
 62
     0
 10
-18.2335783637895013
 20
16.3393920132778092
 30
0.0
 11
-19.7935262876755687
 21
16.3393920132778092
 31
0.0
 12
-19.9039264020161504
 22
15.9754516100806399
 32
0.0
 13
-19.9039264020161504
 23
15.9754516100806399
 33
0.0
210
0.0
220
0.0
230
-1.0
  0
SOLID
  5
3D5
  8
LAYER1
  6
CONTINUOUS
 62
     0
 10
-0.1640708642715234
 20
16.1970705016398391
 30
0.0
 11
-1.6229661979167569
 21
15.8682408883346504
 31
0.0
 12
-0.0759612349389602
 22
15.8682408883346504
 32
0.0
 13
-0.0759612349389602
 23
15.8682408883346504
 33
0.0
210
0.0
220
0.0
230
-1.0
  0
SOLID
  5
3D6
  8
LAYER1
  6
CONTINUOUS
 62
     0
 10
-0.1640708642715234
 20
16.1970705016398391
 30
0.0
 11
-1.7110758272493201
 21
16.1970705016398391
 31
0.0
 12
-1.6229661979167569
 22
15.8682408883346504
 32
0.0
 13
-1.6229661979167569
 23
15.8682408883346504
 33
0.0
210
0.0
220
0.0
230
-1.0
  0
SOLID
  5
3D7
  8
LAYER1
  6
CONTINUOUS
 62
     0
 10
-18.3439784781300794
 20
15.9754516100806399
 30
0.0
 11
-19.9327484814113092
 21
15.6828161270564497
 31
0.0
 12
-18.4327484814112985
 22
15.6828161270564497
 32
0.0
 13
-18.4327484814112985
 23
15.6828161270564497
 33
0.0
210
0.0
220
0.0
230
-1.0
  0
SOLID
  5
3D8
  8
LAYER1
  6
CONTINUOUS
 62
     0
 10
-18.3439784781300794
 20
15.9754516100806399
 30
0.0
 11
-19.9039264020161504
 21
15.9754516100806399
 31
0.0
 12
-19.9327484814113092
 22
15.6828161270564497
 32
0.0
 13
-19.9327484814113092
 23
15.6828161270564497
 33
0.0
210
0.0
220
0.0
230
-1.0
  0
SOLID
  5
3D9
  8
LAYER1
  6
CONTINUOUS
 62
     0
 10
-0.0759612349389602
 20
15.8682408883346504
 30
0.0
 11
-1.5531728644572711
 21
15.6077686218342606
 31
0.0
 12
-0.053172864457272
 22
15.6077686218342606
 32
0.0
 13
-0.053172864457272
 23
15.6077686218342606
 33
0.0
210
0.0
220
0.0
230
-1.0
  0
SOLID
  5
3DA
  8
LAYER1
  6
CONTINUOUS
 62
     0
 10
-0.0759612349389602
 20
15.8682408883346504
 30
0.0
 11
-1.6229661979167569
 21
15.8682408883346504
 31
0.0
 12
-1.5531728644572711
 22
15.6077686218342606
 32
0.0
 13
-1.5531728644572711
 23
15.6077686218342606
 33
0.0
210
0.0
220
0.0
230
-1.0
  0
SOLID
  5
3DB
  8
LAYER1
  6
CONTINUOUS
 62
     0
 10
-18.4327484814112985
 20
15.6828161270564497
 30
0.0
 11
-20.0
 21
15.0
 31
0.0
 12
-18.5
 22
15.0
 32
0.0
 13
-18.5
 23
15.0
 33
0.0
210
0.0
220
0.0
230
-1.0
  0
SOLID
  5
3DC
  8
LAYER1
  6
CONTINUOUS
 62
     0
 10
-18.4327484814112985
 20
15.6828161270564497
 30
0.0
 11
-19.9327484814113092
 21
15.6828161270564497
 31
0.0
 12
-20.0
 22
15.0
 32
0.0
 13
-20.0
 23
15.0
 33
0.0
210
0.0
220
0.0
230
-1.0
  0
SOLID
  5
3DD
  8
LAYER1
  6
CONTINUOUS
 62
     0
 10
-0.053172864457272
 20
15.6077686218342606
 30
0.0
 11
-1.499999999999998
 21
15.0
 31
0.0
 12
0.000000000000001
 22
15.0
 32
0.0
 13
0.000000000000001
 23
15.0
 33
0.0
210
0.0
220
0.0
230
-1.0
  0
SOLID
  5
3DE
  8
LAYER1
  6
CONTINUOUS
 62
     0
 10
-0.053172864457272
 20
15.6077686218342606
 30
0.0
 11
-1.5531728644572711
 21
15.6077686218342606
 31
0.0
 12
-1.499999999999998
 22
15.0
 32
0.0
 13
-1.499999999999998
 23
15.0
 33
0.0
210
0.0
220
0.0
230
-1.0
  0
SOLID
  5
3DF
  8
LAYER1
  6
CONTINUOUS
 62
     0
 10
-18.5
 20
15.0
 30
0.0
 11
-20.0
 21
5.0
 31
0.0
 12
-18.5
 22
5.0
 32
0.0
 13
-18.5
 23
5.0
 33
0.0
210
0.0
220
0.0
230
-1.0
  0
SOLID
  5
3E0
  8
LAYER1
  6
CONTINUOUS
 62
     0
 10
-18.5
 20
15.0
 30
0.0
 11
-20.0
 21
15.0
 31
0.0
 12
-20.0
 22
5.0
 32
0.0
 13
-20.0
 23
5.0
 33
0.0
210
0.0
220
0.0
230
-1.0
  0
SOLID
  5
3E1
  8
LAYER1
  6
CONTINUOUS
 62
     0
 10
0.0000000000000009
 20
15.0
 30
0.0
 11
-1.499999999999996
 21
5.0
 31
0.0
 12
0.0000000000000027
 22
5.0
 32
0.0
 13
0.0000000000000027
 23
5.0
 33
0.0
210
0.0
220
0.0
230
-1.0
  0
SOLID
  5
3E2
  8
LAYER1
  6
CONTINUOUS
 62
     0
 10
0.0000000000000009
 20
15.0
 30
0.0
 11
-1.4999999999999989
 21
15.0
 31
0.0
 12
-1.499999999999996
 22
5.0
 32
0.0
 13
-1.499999999999996
 23
5.0
 33
0.0
210
0.0
220
0.0
230
-1.0
  0
SOLID
  5
3E3
  8
LAYER1
  6
CONTINUOUS
 62
     0
 10
-18.5
 20
5.0
 30
0.0
 11
-19.9468271355427191
 21
4.3922313781657421
 31
0.0
 12
-18.4468271355427191
 22
4.3922313781657421
 32
0.0
 13
-18.4468271355427191
 23
4.3922313781657421
 33
0.0
210
0.0
220
0.0
230
-1.0
  0
SOLID
  5
3E4
  8
LAYER1
  6
CONTINUOUS
 62
     0
 10
-18.5
 20
5.0
 30
0.0
 11
-20.0
 21
5.0
 31
0.0
 12
-19.9468271355427191
 22
4.3922313781657421
 32
0.0
 13
-19.9468271355427191
 23
4.3922313781657421
 33
0.0
210
0.0
220
0.0
230
-1.0
  0
SOLID
  5
3E5
  8
LAYER1
  6
CONTINUOUS
 62
     0
 10
0.0000000000000027
 20
5.0
 30
0.0
 11
-1.553172864457268
 21
4.3922313781657421
 31
0.0
 12
-0.0531728644572696
 22
4.3922313781657421
 32
0.0
 13
-0.0531728644572696
 23
4.3922313781657421
 33
0.0
210
0.0
220
0.0
230
-1.0
  0
SOLID
  5
3E6
  8
LAYER1
  6
CONTINUOUS
 62
     0
 10
0.0000000000000027
 20
5.0
 30
0.0
 11
-1.499999999999996
 21
5.0
 31
0.0
 12
-1.553172864457268
 22
4.3922313781657421
 32
0.0
 13
-1.553172864457268
 23
4.3922313781657421
 33
0.0
210
0.0
220
0.0
230
-1.0
  0
SOLID
  5
3E7
  8
LAYER1
  6
CONTINUOUS
 62
     0
 10
-18.4468271355427191
 20
4.3922313781657421
 30
0.0
 11
-19.9240387650610415
 21
4.1317591116653469
 31
0.0
 12
-18.3770338020832398
 22
4.1317591116653469
 32
0.0
 13
-18.3770338020832398
 23
4.1317591116653469
 33
0.0
210
0.0
220
0.0
230
-1.0
  0
SOLID
  5
3E8
  8
LAYER1
  6
CONTINUOUS
 62
     0
 10
-18.4468271355427191
 20
4.3922313781657421
 30
0.0
 11
-19.9468271355427191
 21
4.3922313781657421
 31
0.0
 12
-19.9240387650610415
 22
4.1317591116653469
 32
0.0
 13
-19.9240387650610415
 23
4.1317591116653469
 33
0.0
210
0.0
220
0.0
230
-1.0
  0
SOLID
  5
3E9
  8
LAYER1
  6
CONTINUOUS
 62
     0
 10
-0.0531728644572696
 20
4.3922313781657421
 30
0.0
 11
-1.622966197916754
 21
4.1317591116653469
 31
0.0
 12
-0.0759612349389576
 22
4.1317591116653469
 32
0.0
 13
-0.0759612349389576
 23
4.1317591116653469
 33
0.0
210
0.0
220
0.0
230
-1.0
  0
SOLID
  5
3EA
  8
LAYER1
  6
CONTINUOUS
 62
     0
 10
-0.0531728644572696
 20
4.3922313781657421
 30
0.0
 11
-1.553172864457268
 21
4.3922313781657421
 31
0.0
 12
-1.622966197916754
 22
4.1317591116653469
 32
0.0
 13
-1.622966197916754
 23
4.1317591116653469
 33
0.0
210
0.0
220
0.0
230
-1.0
  0
SOLID
  5
3EB
  8
LAYER1
  6
CONTINUOUS
 62
     0
 10
-18.3770338020832398
 20
4.1317591116653469
 30
0.0
 11
-19.8359291357284704
 21
3.8029294983601578
 31
0.0
 12
-18.2889241727506793
 22
3.8029294983601578
 32
0.0
 13
-18.2889241727506793
 23
3.8029294983601578
 33
0.0
210
0.0
220
0.0
230
-1.0
  0
SOLID
  5
3EC
  8
LAYER1
  6
CONTINUOUS
 62
     0
 10
-18.3770338020832398
 20
4.1317591116653469
 30
0.0
 11
-19.9240387650610415
 21
4.1317591116653469
 31
0.0
 12
-19.8359291357284704
 22
3.8029294983601578
 32
0.0
 13
-19.8359291357284704
 23
3.8029294983601578
 33
0.0
210
0.0
220
0.0
230
-1.0
  0
SOLID
  5
3ED
  8
LAYER1
  6
CONTINUOUS
 62
     0
 10
-0.0759612349389576
 20
4.1317591116653469
 30
0.0
 11
-1.7110758272493181
 21
3.8029294983601578
 31
0.0
 12
-0.1640708642715213
 22
3.8029294983601578
 32
0.0
 13
-0.1640708642715213
 23
3.8029294983601578
 33
0.0
210
0.0
220
0.0
230
-1.0
  0
SOLID
  5
3EE
  8
LAYER1
  6
CONTINUOUS
 62
     0
 10
-0.0759612349389576
 20
4.1317591116653469
 30
0.0
 11
-1.622966197916754
 21
4.1317591116653469
 31
0.0
 12
-1.7110758272493181
 22
3.8029294983601578
 32
0.0
 13
-1.7110758272493181
 23
3.8029294983601578
 33
0.0
210
0.0
220
0.0
230
-1.0
  0
SOLID
  5
3EF
  8
LAYER1
  6
CONTINUOUS
 62
     0
 10
-18.2889241727506793
 20
3.8029294983601578
 30
0.0
 11
-19.6984631039295408
 21
3.289899283371656
 31
0.0
 12
-18.0496942546366306
 22
3.289899283371656
 32
0.0
 13
-18.0496942546366306
 23
3.289899283371656
 33
0.0
210
0.0
220
0.0
230
-1.0
  0
SOLID
  5
3F0
  8
LAYER1
  6
CONTINUOUS
 62
     0
 10
-18.2889241727506793
 20
3.8029294983601578
 30
0.0
 11
-19.8359291357284704
 21
3.8029294983601578
 31
0.0
 12
-19.6984631039295408
 22
3.289899283371656
 32
0.0
 13
-19.6984631039295408
 23
3.289899283371656
 33
0.0
210
0.0
220
0.0
230
-1.0
  0
SOLID
  5
3F1
  8
LAYER1
  6
CONTINUOUS
 62
     0
 10
-0.1640708642715213
 20
3.8029294983601578
 30
0.0
 11
-1.9503057453633621
 21
3.289899283371656
 31
0.0
 12
-0.3015368960704557
 22
3.289899283371656
 32
0.0
 13
-0.3015368960704557
 23
3.289899283371656
 33
0.0
210
0.0
220
0.0
230
-1.0
  0
SOLID
  5
3F2
  8
LAYER1
  6
CONTINUOUS
 62
     0
 10
-0.1640708642715213
 20
3.8029294983601578
 30
0.0
 11
-1.7110758272493181
 21
3.8029294983601578
 31
0.0
 12
-1.9503057453633621
 22
3.289899283371656
 32
0.0
 13
-1.9503057453633621
 23
3.289899283371656
 33
0.0
210
0.0
220
0.0
230
-1.0
  0
SOLID
  5
3F3
  8
LAYER1
  6
CONTINUOUS
 62
     0
 10
-18.0496942546366306
 20
3.289899283371656
 30
0.0
 11
-19.6798577625384397
 21
3.2499999999999991
 31
0.0
 12
-18.0310889132455294
 22
3.2499999999999991
 32
0.0
 13
-18.0310889132455294
 23
3.2499999999999991
 33
0.0
210
0.0
220
0.0
230
-1.0
  0
SOLID
  5
3F4
  8
LAYER1
  6
CONTINUOUS
 62
     0
 10
-18.0496942546366306
 20
3.289899283371656
 30
0.0
 11
-19.6984631039295408
 21
3.289899283371656
 31
0.0
 12
-19.6798577625384397
 22
3.2499999999999991
 32
0.0
 13
-19.6798577625384397
 23
3.2499999999999991
 33
0.0
210
0.0
220
0.0
230
-1.0
  0
SOLID
  5
3F5
  8
LAYER1
  6
CONTINUOUS
 62
     0
 10
-0.3015368960704559
 20
3.289899283371656
 30
0.0
 11
-1.9689110867544619
 21
3.2499999999999991
 31
0.0
 12
-0.3201422374615559
 22
3.2499999999999991
 32
0.0
 13
-0.3201422374615559
 23
3.2499999999999991
 33
0.0
210
0.0
220
0.0
230
-1.0
  0
SOLID
  5
3F6
  8
LAYER1
  6
CONTINUOUS
 62
     0
 10
-0.3015368960704559
 20
3.289899283371656
 30
0.0
 11
-1.9503057453633621
 21
3.289899283371656
 31
0.0
 12
-1.9689110867544619
 22
3.2499999999999991
 32
0.0
 13
-1.9689110867544619
 23
3.2499999999999991
 33
0.0
210
0.0
220
0.0
230
-1.0
  0
SOLID
  5
3F7
  8
LAYER1
  6
CONTINUOUS
 62
     0
 10
-18.0310889132455294
 20
3.2499999999999991
 30
0.0
 11
-19.4468174169357617
 21
2.7502433660971111
 31
0.0
 12
-17.6811555509164187
 22
2.7502433660971111
 32
0.0
 13
-17.6811555509164187
 23
2.7502433660971111
 33
0.0
210
0.0
220
0.0
230
-1.0
  0
SOLID
  5
3F8
  8
LAYER1
  6
CONTINUOUS
 62
     0
 10
-18.0310889132455294
 20
3.2499999999999991
 30
0.0
 11
-19.6798577625384397
 21
3.2499999999999991
 31
0.0
 12
-19.4468174169357617
 22
2.7502433660971111
 32
0.0
 13
-19.4468174169357617
 23
2.7502433660971111
 33
0.0
210
0.0
220
0.0
230
-1.0
  0
SOLID
  5
3F9
  8
LAYER1
  6
CONTINUOUS
 62
     0
 10
-0.3201422374615559
 20
3.2499999999999991
 30
0.0
 11
-2.3188444490835751
 21
2.7502433660971111
 31
0.0
 12
-0.5531825830642365
 22
2.7502433660971111
 32
0.0
 13
-0.5531825830642365
 23
2.7502433660971111
 33
0.0
210
0.0
220
0.0
230
-1.0
  0
SOLID
  5
3FA
  8
LAYER1
  6
CONTINUOUS
 62
     0
 10
-0.3201422374615559
 20
3.2499999999999991
 30
0.0
 11
-1.968911086754463
 21
3.2499999999999991
 31
0.0
 12
-2.3188444490835751
 22
2.7502433660971111
 32
0.0
 13
-2.3188444490835751
 23
2.7502433660971111
 33
0.0
210
0.0
220
0.0
230
-1.0
  0
SOLID
  5
3FB
  8
LAYER1
  6
CONTINUOUS
 62
     0
 10
-17.6811555509164187
 20
2.7502433660971111
 30
0.0
 11
-19.330127018922191
 21
2.4999999999999991
 31
0.0
 12
-17.4309121848193094
 22
2.4999999999999991
 32
0.0
 13
-17.4309121848193094
 23
2.4999999999999991
 33
0.0
210
0.0
220
0.0
230
-1.0
  0
SOLID
  5
3FC
  8
LAYER1
  6
CONTINUOUS
 62
     0
 10
-17.6811555509164187
 20
2.7502433660971111
 30
0.0
 11
-19.4468174169357617
 21
2.7502433660971111
 31
0.0
 12
-19.330127018922191
 22
2.4999999999999991
 32
0.0
 13
-19.330127018922191
 23
2.4999999999999991
 33
0.0
210
0.0
220
0.0
230
-1.0
  0
SOLID
  5
3FD
  8
LAYER1
  6
CONTINUOUS
 62
     0
 10
-0.5531825830642365
 20
2.7502433660971111
 30
0.0
 11
-2.5690878151806871
 21
2.4999999999999991
 31
0.0
 12
-0.6698729810778051
 22
2.4999999999999991
 32
0.0
 13
-0.6698729810778051
 23
2.4999999999999991
 33
0.0
210
0.0
220
0.0
230
-1.0
  0
SOLID
  5
3FE
  8
LAYER1
  6
CONTINUOUS
 62
     0
 10
-0.5531825830642365
 20
2.7502433660971111
 30
0.0
 11
-2.3188444490835751
 21
2.7502433660971111
 31
0.0
 12
-2.5690878151806871
 22
2.4999999999999991
 32
0.0
 13
-2.5690878151806871
 23
2.4999999999999991
 33
0.0
210
0.0
220
0.0
230
-1.0
  0
SOLID
  5
3FF
  8
LAYER1
  6
CONTINUOUS
 62
     0
 10
-17.4309121848193094
 20
2.4999999999999991
 30
0.0
 11
-19.2032805365819783
 21
2.318844449083576
 31
0.0
 12
-17.2497566339028907
 22
2.318844449083576
 32
0.0
 13
-17.2497566339028907
 23
2.318844449083576
 33
0.0
210
0.0
220
0.0
230
-1.0
  0
SOLID
  5
400
  8
LAYER1
  6
CONTINUOUS
 62
     0
 10
-17.4309121848193094
 20
2.4999999999999991
 30
0.0
 11
-19.330127018922191
 21
2.4999999999999991
 31
0.0
 12
-19.2032805365819783
 22
2.318844449083576
 32
0.0
 13
-19.2032805365819783
 23
2.318844449083576
 33
0.0
210
0.0
220
0.0
230
-1.0
  0
SOLID
  5
401
  8
LAYER1
  6
CONTINUOUS
 62
     0
 10
-0.6698729810778054
 20
2.4999999999999991
 30
0.0
 11
-2.7502433660971102
 21
2.318844449083576
 31
0.0
 12
-0.7967194634180172
 22
2.318844449083576
 32
0.0
 13
-0.7967194634180172
 23
2.318844449083576
 33
0.0
210
0.0
220
0.0
230
-1.0
  0
SOLID
  5
402
  8
LAYER1
  6
CONTINUOUS
 62
     0
 10
-0.6698729810778054
 20
2.4999999999999991
 30
0.0
 11
-2.5690878151806871
 21
2.4999999999999991
 31
0.0
 12
-2.7502433660971102
 22
2.318844449083576
 32
0.0
 13
-2.7502433660971102
 23
2.318844449083576
 33
0.0
210
0.0
220
0.0
230
-1.0
  0
SOLID
  5
403
  8
LAYER1
  6
CONTINUOUS
 62
     0
 10
-17.2497566339028907
 20
2.318844449083576
 30
0.0
 11
-18.9582545584080613
 21
1.968911086754465
 31
0.0
 12
-16.75
 22
1.968911086754465
 32
0.0
 13
-16.75
 23
1.968911086754465
 33
0.0
210
0.0
220
0.0
230
-1.0
  0
SOLID
  5
404
  8
LAYER1
  6
CONTINUOUS
 62
     0
 10
-17.2497566339028907
 20
2.318844449083576
 30
0.0
 11
-19.2032805365819783
 21
2.318844449083576
 31
0.0
 12
-18.9582545584080613
 22
1.968911086754465
 32
0.0
 13
-18.9582545584080613
 23
1.968911086754465
 33
0.0
210
0.0
220
0.0
230
-1.0
  0
SOLID
  5
405
  8
LAYER1
  6
CONTINUOUS
 62
     0
 10
-0.7967194634180172
 20
2.318844449083576
 30
0.0
 11
-3.2499999999999969
 21
1.968911086754465
 31
0.0
 12
-1.0417454415919301
 22
1.968911086754465
 32
0.0
 13
-1.0417454415919301
 23
1.968911086754465
 33
0.0
210
0.0
220
0.0
230
-1.0
  0
SOLID
  5
406
  8
LAYER1
  6
CONTINUOUS
 62
     0
 10
-0.7967194634180172
 20
2.318844449083576
 30
0.0
 11
-2.7502433660971102
 21
2.318844449083576
 31
0.0
 12
-3.2499999999999969
 22
1.968911086754465
 32
0.0
 13
-3.2499999999999969
 23
1.968911086754465
 33
0.0
210
0.0
220
0.0
230
-1.0
  0
SOLID
  5
407
  8
LAYER1
  6
CONTINUOUS
 62
     0
 10
-16.75
 20
1.968911086754465
 30
0.0
 11
-18.8302222155948904
 21
1.7860619515673031
 31
0.0
 12
-16.3578787641819403
 22
1.7860619515673031
 32
0.0
 13
-16.3578787641819403
 23
1.7860619515673031
 33
0.0
210
0.0
220
0.0
230
-1.0
  0
SOLID
  5
408
  8
LAYER1
  6
CONTINUOUS
 62
     0
 10
-16.75
 20
1.968911086754465
 30
0.0
 11
-18.9582545584080613
 21
1.968911086754465
 31
0.0
 12
-18.8302222155948904
 22
1.7860619515673031
 32
0.0
 13
-18.8302222155948904
 23
1.7860619515673031
 33
0.0
210
0.0
220
0.0
230
-1.0
  0
SOLID
  5
409
  8
LAYER1
  6
CONTINUOUS
 62
     0
 10
-1.0417454415919301
 20
1.968911086754465
 30
0.0
 11
-3.6421212358180539
 21
1.7860619515673031
 31
0.0
 12
-1.169777784405108
 22
1.7860619515673031
 32
0.0
 13
-1.169777784405108
 23
1.7860619515673031
 33
0.0
210
0.0
220
0.0
230
-1.0
  0
SOLID
  5
40A
  8
LAYER1
  6
CONTINUOUS
 62
     0
 10
-1.0417454415919301
 20
1.968911086754465
 30
0.0
 11
-3.2499999999999978
 21
1.968911086754465
 31
0.0
 12
-3.6421212358180539
 22
1.7860619515673031
 32
0.0
 13
-3.6421212358180539
 23
1.7860619515673031
 33
0.0
210
0.0
220
0.0
230
-1.0
  0
SOLID
  5
40B
  8
LAYER1
  6
CONTINUOUS
 62
     0
 10
-16.3578787641819403
 20
1.7860619515673031
 30
0.0
 11
-18.7552360912768989
 21
1.7110758272493209
 31
0.0
 12
-16.1970705016398391
 22
1.7110758272493209
 32
0.0
 13
-16.1970705016398391
 23
1.7110758272493209
 33
0.0
210
0.0
220
0.0
230
-1.0
  0
SOLID
  5
40C
  8
LAYER1
  6
CONTINUOUS
 62
     0
 10
-16.3578787641819403
 20
1.7860619515673031
 30
0.0
 11
-18.8302222155948904
 21
1.7860619515673031
 31
0.0
 12
-18.7552360912768989
 22
1.7110758272493209
 32
0.0
 13
-18.7552360912768989
 23
1.7110758272493209
 33
0.0
210
0.0
220
0.0
230
-1.0
  0
SOLID
  5
40D
  8
LAYER1
  6
CONTINUOUS
 62
     0
 10
-1.169777784405108
 20
1.7860619515673031
 30
0.0
 11
-3.8029294983601569
 21
1.7110758272493209
 31
0.0
 12
-1.24476390872309
 22
1.7110758272493209
 32
0.0
 13
-1.24476390872309
 23
1.7110758272493209
 33
0.0
210
0.0
220
0.0
230
-1.0
  0
SOLID
  5
40E
  8
LAYER1
  6
CONTINUOUS
 62
     0
 10
-1.169777784405108
 20
1.7860619515673031
 30
0.0
 11
-3.6421212358180539
 21
1.7860619515673031
 31
0.0
 12
-3.8029294983601569
 22
1.7110758272493209
 32
0.0
 13
-3.8029294983601569
 23
1.7110758272493209
 33
0.0
210
0.0
220
0.0
230
-1.0
  0
SOLID
  5
40F
  8
LAYER1
  6
CONTINUOUS
 62
     0
 10
-16.1970705016398391
 20
1.7110758272493209
 30
0.0
 11
-18.5973331284848484
 21
1.5531728644572711
 31
0.0
 12
-15.60776862183425
 22
1.5531728644572711
 32
0.0
 13
-15.60776862183425
 23
1.5531728644572711
 33
0.0
210
0.0
220
0.0
230
-1.0
  0
SOLID
  5
410
  8
LAYER1
  6
CONTINUOUS
 62
     0
 10
-16.1970705016398391
 20
1.7110758272493209
 30
0.0
 11
-18.7552360912768989
 21
1.7110758272493209
 31
0.0
 12
-18.5973331284848484
 22
1.5531728644572711
 32
0.0
 13
-18.5973331284848484
 23
1.5531728644572711
 33
0.0
210
0.0
220
0.0
230
-1.0
  0
SOLID
  5
411
  8
LAYER1
  6
CONTINUOUS
 62
     0
 10
-1.24476390872309
 20
1.7110758272493209
 30
0.0
 11
-4.3922313781657438
 21
1.5531728644572711
 31
0.0
 12
-1.4026668715151389
 22
1.5531728644572711
 32
0.0
 13
-1.4026668715151389
 23
1.5531728644572711
 33
0.0
210
0.0
220
0.0
230
-1.0
  0
SOLID
  5
412
  8
LAYER1
  6
CONTINUOUS
 62
     0
 10
-1.24476390872309
 20
1.7110758272493209
 30
0.0
 11
-3.8029294983601578
 21
1.7110758272493209
 31
0.0
 12
-4.3922313781657438
 22
1.5531728644572711
 32
0.0
 13
-4.3922313781657438
 23
1.5531728644572711
 33
0.0
210
0.0
220
0.0
230
-1.0
  0
SOLID
  5
413
  8
LAYER1
  6
CONTINUOUS
 62
     0
 10
-15.60776862183425
 20
1.5531728644572711
 30
0.0
 11
-18.5441602640275818
 21
1.5
 31
0.0
 12
-15.0
 22
1.5
 32
0.0
 13
-15.0
 23
1.5
 33
0.0
210
0.0
220
0.0
230
-1.0
  0
SOLID
  5
414
  8
LAYER1
  6
CONTINUOUS
 62
     0
 10
-15.60776862183425
 20
1.5531728644572711
 30
0.0
 11
-18.5973331284848484
 21
1.5531728644572711
 31
0.0
 12
-18.5441602640275818
 22
1.5
 32
0.0
 13
-18.5441602640275818
 23
1.5
 33
0.0
210
0.0
220
0.0
230
-1.0
  0
SOLID
  5
415
  8
LAYER1
  6
CONTINUOUS
 62
     0
 10
-1.4026668715151389
 20
1.5531728644572711
 30
0.0
 11
-4.9999999999999956
 21
1.5
 31
0.0
 12
-1.4558397359724109
 22
1.5
 32
0.0
 13
-1.4558397359724109
 23
1.5
 33
0.0
210
0.0
220
0.0
230
-1.0
  0
SOLID
  5
416
  8
LAYER1
  6
CONTINUOUS
 62
     0
 10
-1.4026668715151389
 20
1.5531728644572711
 30
0.0
 11
-4.3922313781657536
 21
1.5531728644572711
 31
0.0
 12
-4.9999999999999956
 22
1.5
 32
0.0
 13
-4.9999999999999956
 23
1.5
 33
0.0
210
0.0
220
0.0
230
-1.0
  0
SOLID
  5
417
  8
LAYER1
  6
CONTINUOUS
 62
     0
 10
-1.4558397359724109
 20
1.5
 30
0.0
 11
-18.2139380484326914
 21
1.16977778440511
 31
0.0
 12
-1.7860619515673011
 22
1.16977778440511
 32
0.0
 13
-1.7860619515673011
 23
1.16977778440511
 33
0.0
210
0.0
220
0.0
230
-1.0
  0
SOLID
  5
418
  8
LAYER1
  6
CONTINUOUS
 62
     0
 10
-1.4558397359724109
 20
1.5
 30
0.0
 11
-18.5441602640275818
 21
1.5
 31
0.0
 12
-18.2139380484326914
 22
1.16977778440511
 32
0.0
 13
-18.2139380484326914
 23
1.16977778440511
 33
0.0
210
0.0
220
0.0
230
-1.0
  0
SOLID
  5
419
  8
LAYER1
  6
CONTINUOUS
 62
     0
 10
-1.7860619515673011
 20
1.16977778440511
 30
0.0
 11
-17.5
 21
0.6698729810778074
 31
0.0
 12
-2.4999999999999978
 22
0.6698729810778074
 32
0.0
 13
-2.4999999999999978
 23
0.6698729810778074
 33
0.0
210
0.0
220
0.0
230
-1.0
  0
SOLID
  5
41A
  8
LAYER1
  6
CONTINUOUS
 62
     0
 10
-1.7860619515673011
 20
1.16977778440511
 30
0.0
 11
-18.2139380484326914
 21
1.16977778440511
 31
0.0
 12
-17.5
 22
0.6698729810778074
 32
0.0
 13
-17.5
 23
0.6698729810778074
 33
0.0
210
0.0
220
0.0
230
-1.0
  0
SOLID
  5
41B
  8
LAYER1
  6
CONTINUOUS
 62
     0
 10
-2.4999999999999978
 20
0.6698729810778074
 30
0.0
 11
-16.7101007166283395
 21
0.3015368960704583
 31
0.0
 12
-3.2898992833716538
 22
0.3015368960704583
 32
0.0
 13
-3.2898992833716538
 23
0.3015368960704583
 33
0.0
210
0.0
220
0.0
230
-1.0
  0
SOLID
  5
41C
  8
LAYER1
  6
CONTINUOUS
 62
     0
 10
-2.4999999999999978
 20
0.6698729810778074
 30
0.0
 11
-17.5
 21
0.6698729810778074
 31
0.0
 12
-16.7101007166283395
 22
0.3015368960704583
 32
0.0
 13
-16.7101007166283395
 23
0.3015368960704583
 33
0.0
210
0.0
220
0.0
230
-1.0
  0
SOLID
  5
41D
  8
LAYER1
  6
CONTINUOUS
 62
     0
 10
-3.289899283371656
 20
0.3015368960704583
 30
0.0
 11
-15.8682408883346504
 21
0.0759612349389602
 31
0.0
 12
-4.1317591116653469
 22
0.0759612349389602
 32
0.0
 13
-4.1317591116653469
 23
0.0759612349389602
 33
0.0
210
0.0
220
0.0
230
-1.0
  0
SOLID
  5
41E
  8
LAYER1
  6
CONTINUOUS
 62
     0
 10
-3.289899283371656
 20
0.3015368960704583
 30
0.0
 11
-16.7101007166283395
 21
0.3015368960704583
 31
0.0
 12
-15.8682408883346504
 22
0.0759612349389602
 32
0.0
 13
-15.8682408883346504
 23
0.0759612349389602
 33
0.0
210
0.0
220
0.0
230
-1.0
  0
SOLID
  5
41F
  8
LAYER1
  6
CONTINUOUS
 62
     0
 10
-4.131759111665354
 20
0.0759612349389602
 30
0.0
 11
-15.0
 21
0.0
 31
0.0
 12
-4.9999999999999947
 22
0.0
 32
0.0
 13
-4.9999999999999947
 23
0.0
 33
0.0
210
0.0
220
0.0
230
-1.0
  0
SOLID
  5
420
  8
LAYER1
  6
CONTINUOUS
 62
     0
 10
-4.131759111665354
 20
0.0759612349389602
 30
0.0
 11
-15.8682408883346504
 21
0.0759612349389602
 31
0.0
 12
-15.0
 22
0.0
 32
0.0
 13
-15.0
 23
0.0
 33
0.0
210
0.0
220
0.0
230
-1.0
  0
LINE
  5
421
  8
LAYER1
  6
CONTINUOUS
 62
     0
 10
4.1317591116653469
 20
19.9240387650610415
 30
0.0
 11
4.9999999999999583
 21
20.0
 31
0.0
  0
LINE
  5
422
  8
LAYER1
  6
CONTINUOUS
 62
     0
 10
15.0
 20
20.0
 30
0.0
 11
15.7712473611884398
 21
19.9240387650610415
 31
0.0
  0
LINE
  5
423
  8
LAYER1
  6
CONTINUOUS
 62
     0
 10
4.0566987509215551
 20
19.9039264020161504
 30
0.0
 11
4.1317591116653469
 21
19.9240387650610415
 31
0.0
  0
LINE
  5
424
  8
LAYER1
  6
CONTINUOUS
 62
     0
 10
15.7712473611884398
 20
19.9240387650610415
 30
0.0
 11
15.9754516100806399
 21
19.9039264020161504
 31
0.0
  0
LINE
  5
425
  8
LAYER1
  6
CONTINUOUS
 62
     0
 10
3.289899283371656
 20
19.6984631039295408
 30
0.0
 11
4.0566987509215551
 21
19.9039264020161504
 31
0.0
  0
LINE
  5
426
  8
LAYER1
  6
CONTINUOUS
 62
     0
 10
15.9754516100806399
 20
19.9039264020161504
 30
0.0
 11
16.6527733320235889
 21
19.6984631039295408
 31
0.0
  0
LINE
  5
427
  8
LAYER1
  6
CONTINUOUS
 62
     0
 10
3.120342897173876
 20
19.6193976625564304
 30
0.0
 11
3.289899283371656
 21
19.6984631039295408
 31
0.0
  0
LINE
  5
428
  8
LAYER1
  6
CONTINUOUS
 62
     0
 10
16.6527733320235889
 20
19.6984631039295408
 30
0.0
 11
16.9134171618254499
 21
19.6193976625564304
 31
0.0
  0
LINE
  5
429
  8
LAYER1
  6
CONTINUOUS
 62
     0
 10
2.5
 20
19.3301270189222016
 30
0.0
 11
3.120342897173876
 21
19.6193976625564304
 31
0.0
  0
LINE
  5
42A
  8
LAYER1
  6
CONTINUOUS
 62
     0
 10
16.9134171618254499
 20
19.6193976625564304
 30
0.0
 11
17.4546044714587296
 21
19.3301270189222016
 31
0.0
  0
LINE
  5
42B
  8
LAYER1
  6
CONTINUOUS
 62
     0
 10
2.253246076368685
 20
19.1573480615127316
 30
0.0
 11
2.5
 21
19.3301270189222016
 31
0.0
  0
LINE
  5
42C
  8
LAYER1
  6
CONTINUOUS
 62
     0
 10
17.4546044714587296
 20
19.3301270189222016
 30
0.0
 11
17.77785116509801
 21
19.1573480615127316
 31
0.0
  0
LINE
  5
42D
  8
LAYER1
  6
CONTINUOUS
 62
     0
 10
1.7860619515673031
 20
18.8302222155948904
 30
0.0
 11
2.253246076368685
 21
19.1573480615127316
 31
0.0
  0
LINE
  5
42E
  8
LAYER1
  6
CONTINUOUS
 62
     0
 10
17.77785116509801
 20
19.1573480615127316
 30
0.0
 11
18.1764551616598418
 21
18.8302222155948904
 31
0.0
  0
LINE
  5
42F
  8
LAYER1
  6
CONTINUOUS
 62
     0
 10
1.491373641905146
 20
18.5355339059327413
 30
0.0
 11
1.7860619515673031
 21
18.8302222155948904
 31
0.0
  0
LINE
  5
430
  8
LAYER1
  6
CONTINUOUS
 62
     0
 10
18.1764551616598418
 20
18.8302222155948904
 30
0.0
 11
18.5355339059327413
 21
18.5355339059327413
 31
0.0
  0
LINE
  5
431
  8
LAYER1
  6
CONTINUOUS
 62
     0
 10
1.4558397359724089
 20
18.5
 30
0.0
 11
1.491373641905146
 21
18.5355339059327413
 31
0.0
  0
LINE
  5
432
  8
LAYER1
  6
CONTINUOUS
 62
     0
 10
18.5355339059327413
 20
18.5355339059327413
 30
0.0
 11
18.5646958288870287
 21
18.5
 31
0.0
  0
LINE
  5
433
  8
LAYER1
  6
CONTINUOUS
 62
     0
 10
1.402666871515142
 20
18.4468271355427298
 30
0.0
 11
1.4558397359724089
 21
18.5
 31
0.0
  0
LINE
  5
434
  8
LAYER1
  6
CONTINUOUS
 62
     0
 10
4.9999999999999583
 20
18.5
 30
0.0
 11
4.3922313781657421
 21
18.4468271355427298
 31
0.0
  0
LINE
  5
435
  8
LAYER1
  6
CONTINUOUS
 62
     0
 10
15.6828161270564497
 20
18.4327484814112985
 30
0.0
 11
15.0
 21
18.5
 31
0.0
  0
LINE
  5
436
  8
LAYER1
  6
CONTINUOUS
 62
     0
 10
18.5646958288870287
 20
18.5
 30
0.0
 11
18.6198877238437994
 21
18.4327484814112985
 31
0.0
  0
LINE
  5
437
  8
LAYER1
  6
CONTINUOUS
 62
     0
 10
1.2447639087230911
 20
18.2889241727506793
 30
0.0
 11
1.402666871515142
 21
18.4468271355427298
 31
0.0
  0
LINE
  5
438
  8
LAYER1
  6
CONTINUOUS
 62
     0
 10
4.3922313781657421
 20
18.4468271355427298
 30
0.0
 11
3.8029294983601591
 21
18.2889241727506793
 31
0.0
  0
LINE
  5
439
  8
LAYER1
  6
CONTINUOUS
 62
     0
 10
16.3393920132778092
 20
18.2335783637895013
 30
0.0
 11
15.6828161270564497
 21
18.4327484814112985
 31
0.0
  0
LINE
  5
43A
  8
LAYER1
  6
CONTINUOUS
 62
     0
 10
18.6198877238437994
 20
18.4327484814112985
 30
0.0
 11
18.7833424151428616
 21
18.2335783637895013
 31
0.0
  0
LINE
  5
43B
  8
LAYER1
  6
CONTINUOUS
 62
     0
 10
1.16977778440511
 20
18.2139380484326985
 30
0.0
 11
1.2447639087230911
 21
18.2889241727506793
 31
0.0
  0
LINE
  5
43C
  8
LAYER1
  6
CONTINUOUS
 62
     0
 10
3.8029294983601591
 20
18.2889241727506793
 30
0.0
 11
3.6421212358180579
 21
18.2139380484326985
 31
0.0
  0
LINE
  5
43D
  8
LAYER1
  6
CONTINUOUS
 62
     0
 10
1.0417454415919329
 20
18.0310889132455401
 30
0.0
 11
1.16977778440511
 21
18.2139380484326985
 31
0.0
  0
LINE
  5
43E
  8
LAYER1
  6
CONTINUOUS
 62
     0
 10
3.6421212358180579
 20
18.2139380484326985
 30
0.0
 11
3.25
 21
18.0310889132455401
 31
0.0
  0
LINE
  5
43F
  8
LAYER1
  6
CONTINUOUS
 62
     0
 10
16.9444958155686116
 20
17.9101436430589089
 30
0.0
 11
16.3393920132778092
 21
18.2335783637895013
 31
0.0
  0
LINE
  5
440
  8
LAYER1
  6
CONTINUOUS
 62
     0
 10
18.7833424151428616
 20
18.2335783637895013
 30
0.0
 11
19.0487784306640506
 21
17.9101436430589089
 31
0.0
  0
LINE
  5
441
  8
LAYER1
  6
CONTINUOUS
 62
     0
 10
17.1056946663727309
 20
17.77785116509801
 30
0.0
 11
16.9444958155686116
 21
17.9101436430589089
 31
0.0
  0
LINE
  5
442
  8
LAYER1
  6
CONTINUOUS
 62
     0
 10
19.0487784306640506
 20
17.9101436430589089
 30
0.0
 11
19.1573480615127316
 21
17.77785116509801
 31
0.0
  0
LINE
  5
443
  8
LAYER1
  6
CONTINUOUS
 62
     0
 10
0.7967194634180187
 20
17.6811555509164187
 30
0.0
 11
1.0417454415919329
 21
18.0310889132455401
 31
0.0
  0
LINE
  5
444
  8
LAYER1
  6
CONTINUOUS
 62
     0
 10
3.25
 20
18.0310889132455401
 30
0.0
 11
2.750243366097112
 21
17.6811555509164187
 31
0.0
  0
LINE
  5
445
  8
LAYER1
  6
CONTINUOUS
 62
     0
 10
0.6698729810778074
 20
17.5
 30
0.0
 11
0.7967194634180187
 21
17.6811555509164187
 31
0.0
  0
LINE
  5
446
  8
LAYER1
  6
CONTINUOUS
 62
     0
 10
2.750243366097112
 20
17.6811555509164187
 30
0.0
 11
2.5690878151806902
 21
17.5
 31
0.0
  0
LINE
  5
447
  8
LAYER1
  6
CONTINUOUS
 62
     0
 10
17.4748737341529115
 20
17.4748737341529115
 30
0.0
 11
17.1056946663727309
 21
17.77785116509801
 31
0.0
  0
LINE
  5
448
  8
LAYER1
  6
CONTINUOUS
 62
     0
 10
19.1573480615127316
 20
17.77785116509801
 30
0.0
 11
19.3192928722946391
 21
17.4748737341529115
 31
0.0
  0
LINE
  5
449
  8
LAYER1
  6
CONTINUOUS
 62
     0
 10
0.5531825830642387
 20
17.2497566339028907
 30
0.0
 11
0.6698729810778074
 21
17.5
 31
0.0
  0
LINE
  5
44A
  8
LAYER1
  6
CONTINUOUS
 62
     0
 10
2.5690878151806902
 20
17.5
 30
0.0
 11
2.318844449083576
 21
17.2497566339028907
 31
0.0
  0
LINE
  5
44B
  8
LAYER1
  6
CONTINUOUS
 62
     0
 10
17.9101436430589089
 20
16.9444958155686116
 30
0.0
 11
17.4748737341529115
 21
17.4748737341529115
 31
0.0
  0
LINE
  5
44C
  8
LAYER1
  6
CONTINUOUS
 62
     0
 10
19.3192928722946391
 20
17.4748737341529115
 30
0.0
 11
19.6027857760403492
 21
16.9444958155686116
 31
0.0
  0
LINE
  5
44D
  8
LAYER1
  6
CONTINUOUS
 62
     0
 10
17.9267555295749794
 20
16.9134171618254499
 30
0.0
 11
17.9101436430589089
 21
16.9444958155686116
 31
0.0
  0
LINE
  5
44E
  8
LAYER1
  6
CONTINUOUS
 62
     0
 10
19.6027857760403492
 20
16.9444958155686116
 30
0.0
 11
19.6193976625564304
 21
16.9134171618254499
 31
0.0
  0
LINE
  5
44F
  8
LAYER1
  6
CONTINUOUS
 62
     0
 10
0.3201422374615583
 20
16.75
 30
0.0
 11
0.5531825830642387
 21
17.2497566339028907
 31
0.0
  0
LINE
  5
450
  8
LAYER1
  6
CONTINUOUS
 62
     0
 10
2.318844449083576
 20
17.2497566339028907
 30
0.0
 11
1.9689110867544639
 21
16.75
 31
0.0
  0
LINE
  5
451
  8
LAYER1
  6
CONTINUOUS
 62
     0
 10
0.3015368960704583
 20
16.7101007166283395
 30
0.0
 11
0.3201422374615583
 21
16.75
 31
0.0
  0
LINE
  5
452
  8
LAYER1
  6
CONTINUOUS
 62
     0
 10
1.9689110867544639
 20
16.75
 30
0.0
 11
1.9503057453633641
 21
16.7101007166283395
 31
0.0
  0
LINE
  5
453
  8
LAYER1
  6
CONTINUOUS
 62
     0
 10
18.2335783637895013
 20
16.3393920132778092
 30
0.0
 11
17.9267555295749794
 21
16.9134171618254499
 31
0.0
  0
LINE
  5
454
  8
LAYER1
  6
CONTINUOUS
 62
     0
 10
19.6193976625564304
 20
16.9134171618254499
 30
0.0
 11
19.7935262876755687
 21
16.3393920132778092
 31
0.0
  0
LINE
  5
455
  8
LAYER1
  6
CONTINUOUS
 62
     0
 10
0.1640708642715234
 20
16.1970705016398391
 30
0.0
 11
0.3015368960704583
 21
16.7101007166283395
 31
0.0
  0
LINE
  5
456
  8
LAYER1
  6
CONTINUOUS
 62
     0
 10
1.9503057453633641
 20
16.7101007166283395
 30
0.0
 11
1.7110758272493201
 21
16.1970705016398391
 31
0.0
  0
LINE
  5
457
  8
LAYER1
  6
CONTINUOUS
 62
     0
 10
18.3439784781300794
 20
15.9754516100806399
 30
0.0
 11
18.2335783637895013
 21
16.3393920132778092
 31
0.0
  0
LINE
  5
458
  8
LAYER1
  6
CONTINUOUS
 62
     0
 10
19.7935262876755687
 20
16.3393920132778092
 30
0.0
 11
19.9039264020161504
 21
15.9754516100806399
 31
0.0
  0
LINE
  5
459
  8
LAYER1
  6
CONTINUOUS
 62
     0
 10
0.0759612349389602
 20
15.8682408883346504
 30
0.0
 11
0.1640708642715234
 21
16.1970705016398391
 31
0.0
  0
LINE
  5
45A
  8
LAYER1
  6
CONTINUOUS
 62
     0
 10
1.7110758272493201
 20
16.1970705016398391
 30
0.0
 11
1.6229661979167569
 21
15.8682408883346504
 31
0.0
  0
LINE
  5
45B
  8
LAYER1
  6
CONTINUOUS
 62
     0
 10
18.4327484814112985
 20
15.6828161270564497
 30
0.0
 11
18.3439784781300794
 21
15.9754516100806399
 31
0.0
  0
LINE
  5
45C
  8
LAYER1
  6
CONTINUOUS
 62
     0
 10
19.9039264020161504
 20
15.9754516100806399
 30
0.0
 11
19.9327484814113092
 21
15.6828161270564497
 31
0.0
  0
LINE
  5
45D
  8
LAYER1
  6
CONTINUOUS
 62
     0
 10
0.053172864457272
 20
15.6077686218342606
 30
0.0
 11
0.0759612349389602
 21
15.8682408883346504
 31
0.0
  0
LINE
  5
45E
  8
LAYER1
  6
CONTINUOUS
 62
     0
 10
1.6229661979167569
 20
15.8682408883346504
 30
0.0
 11
1.5531728644572711
 21
15.6077686218342606
 31
0.0
  0
LINE
  5
45F
  8
LAYER1
  6
CONTINUOUS
 62
     0
 10
18.5
 20
15.0
 30
0.0
 11
18.4327484814112985
 21
15.6828161270564497
 31
0.0
  0
LINE
  5
460
  8
LAYER1
  6
CONTINUOUS
 62
     0
 10
19.9327484814113092
 20
15.6828161270564497
 30
0.0
 11
20.0
 21
15.0
 31
0.0
  0
LINE
  5
461
  8
LAYER1
  6
CONTINUOUS
 62
     0
 10
-0.000000000000001
 20
15.0
 30
0.0
 11
0.053172864457272
 21
15.6077686218342606
 31
0.0
  0
LINE
  5
462
  8
LAYER1
  6
CONTINUOUS
 62
     0
 10
1.5531728644572711
 20
15.6077686218342606
 30
0.0
 11
1.499999999999998
 21
15.0
 31
0.0
  0
LINE
  5
463
  8
LAYER1
  6
CONTINUOUS
 62
     0
 10
18.5
 20
5.0
 30
0.0
 11
18.5
 21
15.0
 31
0.0
  0
LINE
  5
464
  8
LAYER1
  6
CONTINUOUS
 62
     0
 10
20.0
 20
15.0
 30
0.0
 11
20.0
 21
5.0
 31
0.0
  0
LINE
  5
465
  8
LAYER1
  6
CONTINUOUS
 62
     0
 10
-0.0000000000000027
 20
5.0
 30
0.0
 11
-0.0000000000000009
 21
15.0
 31
0.0
  0
LINE
  5
466
  8
LAYER1
  6
CONTINUOUS
 62
     0
 10
1.4999999999999989
 20
15.0
 30
0.0
 11
1.499999999999996
 21
5.0
 31
0.0
  0
LINE
  5
467
  8
LAYER1
  6
CONTINUOUS
 62
     0
 10
18.4468271355427191
 20
4.3922313781657421
 30
0.0
 11
18.5
 21
5.0
 31
0.0
  0
LINE
  5
468
  8
LAYER1
  6
CONTINUOUS
 62
     0
 10
20.0
 20
5.0
 30
0.0
 11
19.9468271355427191
 21
4.3922313781657421
 31
0.0
  0
LINE
  5
469
  8
LAYER1
  6
CONTINUOUS
 62
     0
 10
0.0531728644572696
 20
4.3922313781657421
 30
0.0
 11
-0.0000000000000027
 21
5.0
 31
0.0
  0
LINE
  5
46A
  8
LAYER1
  6
CONTINUOUS
 62
     0
 10
1.499999999999996
 20
5.0
 30
0.0
 11
1.553172864457268
 21
4.3922313781657421
 31
0.0
  0
LINE
  5
46B
  8
LAYER1
  6
CONTINUOUS
 62
     0
 10
18.3770338020832398
 20
4.1317591116653469
 30
0.0
 11
18.4468271355427191
 21
4.3922313781657421
 31
0.0
  0
LINE
  5
46C
  8
LAYER1
  6
CONTINUOUS
 62
     0
 10
19.9468271355427191
 20
4.3922313781657421
 30
0.0
 11
19.9240387650610415
 21
4.1317591116653469
 31
0.0
  0
LINE
  5
46D
  8
LAYER1
  6
CONTINUOUS
 62
     0
 10
0.0759612349389576
 20
4.1317591116653469
 30
0.0
 11
0.0531728644572696
 21
4.3922313781657421
 31
0.0
  0
LINE
  5
46E
  8
LAYER1
  6
CONTINUOUS
 62
     0
 10
1.553172864457268
 20
4.3922313781657421
 30
0.0
 11
1.622966197916754
 21
4.1317591116653469
 31
0.0
  0
LINE
  5
46F
  8
LAYER1
  6
CONTINUOUS
 62
     0
 10
18.2889241727506793
 20
3.8029294983601578
 30
0.0
 11
18.3770338020832398
 21
4.1317591116653469
 31
0.0
  0
LINE
  5
470
  8
LAYER1
  6
CONTINUOUS
 62
     0
 10
19.9240387650610415
 20
4.1317591116653469
 30
0.0
 11
19.8359291357284704
 21
3.8029294983601578
 31
0.0
  0
LINE
  5
471
  8
LAYER1
  6
CONTINUOUS
 62
     0
 10
0.1640708642715213
 20
3.8029294983601578
 30
0.0
 11
0.0759612349389576
 21
4.1317591116653469
 31
0.0
  0
LINE
  5
472
  8
LAYER1
  6
CONTINUOUS
 62
     0
 10
1.622966197916754
 20
4.1317591116653469
 30
0.0
 11
1.7110758272493181
 21
3.8029294983601578
 31
0.0
  0
LINE
  5
473
  8
LAYER1
  6
CONTINUOUS
 62
     0
 10
18.0496942546366306
 20
3.289899283371656
 30
0.0
 11
18.2889241727506793
 21
3.8029294983601578
 31
0.0
  0
LINE
  5
474
  8
LAYER1
  6
CONTINUOUS
 62
     0
 10
19.8359291357284704
 20
3.8029294983601578
 30
0.0
 11
19.6984631039295408
 21
3.289899283371656
 31
0.0
  0
LINE
  5
475
  8
LAYER1
  6
CONTINUOUS
 62
     0
 10
0.3015368960704557
 20
3.289899283371656
 30
0.0
 11
0.1640708642715213
 21
3.8029294983601578
 31
0.0
  0
LINE
  5
476
  8
LAYER1
  6
CONTINUOUS
 62
     0
 10
1.7110758272493181
 20
3.8029294983601578
 30
0.0
 11
1.9503057453633621
 21
3.289899283371656
 31
0.0
  0
LINE
  5
477
  8
LAYER1
  6
CONTINUOUS
 62
     0
 10
18.0310889132455294
 20
3.2499999999999991
 30
0.0
 11
18.0496942546366306
 21
3.289899283371656
 31
0.0
  0
LINE
  5
478
  8
LAYER1
  6
CONTINUOUS
 62
     0
 10
19.6984631039295408
 20
3.289899283371656
 30
0.0
 11
19.6798577625384397
 21
3.2499999999999991
 31
0.0
  0
LINE
  5
479
  8
LAYER1
  6
CONTINUOUS
 62
     0
 10
0.3201422374615559
 20
3.2499999999999991
 30
0.0
 11
0.3015368960704559
 21
3.289899283371656
 31
0.0
  0
LINE
  5
47A
  8
LAYER1
  6
CONTINUOUS
 62
     0
 10
1.9503057453633621
 20
3.289899283371656
 30
0.0
 11
1.9689110867544619
 21
3.2499999999999991
 31
0.0
  0
LINE
  5
47B
  8
LAYER1
  6
CONTINUOUS
 62
     0
 10
17.6811555509164187
 20
2.7502433660971111
 30
0.0
 11
18.0310889132455294
 21
3.2499999999999991
 31
0.0
  0
LINE
  5
47C
  8
LAYER1
  6
CONTINUOUS
 62
     0
 10
19.6798577625384397
 20
3.2499999999999991
 30
0.0
 11
19.4468174169357617
 21
2.7502433660971111
 31
0.0
  0
LINE
  5
47D
  8
LAYER1
  6
CONTINUOUS
 62
     0
 10
0.5531825830642365
 20
2.7502433660971111
 30
0.0
 11
0.3201422374615559
 21
3.2499999999999991
 31
0.0
  0
LINE
  5
47E
  8
LAYER1
  6
CONTINUOUS
 62
     0
 10
1.968911086754463
 20
3.2499999999999991
 30
0.0
 11
2.3188444490835751
 21
2.7502433660971111
 31
0.0
  0
LINE
  5
47F
  8
LAYER1
  6
CONTINUOUS
 62
     0
 10
17.4309121848193094
 20
2.4999999999999991
 30
0.0
 11
17.6811555509164187
 21
2.7502433660971111
 31
0.0
  0
LINE
  5
480
  8
LAYER1
  6
CONTINUOUS
 62
     0
 10
19.4468174169357617
 20
2.7502433660971111
 30
0.0
 11
19.330127018922191
 21
2.4999999999999991
 31
0.0
  0
LINE
  5
481
  8
LAYER1
  6
CONTINUOUS
 62
     0
 10
0.6698729810778051
 20
2.4999999999999991
 30
0.0
 11
0.5531825830642365
 21
2.7502433660971111
 31
0.0
  0
LINE
  5
482
  8
LAYER1
  6
CONTINUOUS
 62
     0
 10
2.3188444490835751
 20
2.7502433660971111
 30
0.0
 11
2.5690878151806871
 21
2.4999999999999991
 31
0.0
  0
LINE
  5
483
  8
LAYER1
  6
CONTINUOUS
 62
     0
 10
17.2497566339028907
 20
2.318844449083576
 30
0.0
 11
17.4309121848193094
 21
2.4999999999999991
 31
0.0
  0
LINE
  5
484
  8
LAYER1
  6
CONTINUOUS
 62
     0
 10
19.330127018922191
 20
2.4999999999999991
 30
0.0
 11
19.2032805365819783
 21
2.318844449083576
 31
0.0
  0
LINE
  5
485
  8
LAYER1
  6
CONTINUOUS
 62
     0
 10
0.7967194634180172
 20
2.318844449083576
 30
0.0
 11
0.6698729810778054
 21
2.4999999999999991
 31
0.0
  0
LINE
  5
486
  8
LAYER1
  6
CONTINUOUS
 62
     0
 10
2.5690878151806871
 20
2.4999999999999991
 30
0.0
 11
2.7502433660971102
 21
2.318844449083576
 31
0.0
  0
LINE
  5
487
  8
LAYER1
  6
CONTINUOUS
 62
     0
 10
16.75
 20
1.968911086754465
 30
0.0
 11
17.2497566339028907
 21
2.318844449083576
 31
0.0
  0
LINE
  5
488
  8
LAYER1
  6
CONTINUOUS
 62
     0
 10
19.2032805365819783
 20
2.318844449083576
 30
0.0
 11
18.9582545584080613
 21
1.968911086754465
 31
0.0
  0
LINE
  5
489
  8
LAYER1
  6
CONTINUOUS
 62
     0
 10
1.0417454415919301
 20
1.968911086754465
 30
0.0
 11
0.7967194634180172
 21
2.318844449083576
 31
0.0
  0
LINE
  5
48A
  8
LAYER1
  6
CONTINUOUS
 62
     0
 10
2.7502433660971102
 20
2.318844449083576
 30
0.0
 11
3.2499999999999969
 21
1.968911086754465
 31
0.0
  0
LINE
  5
48B
  8
LAYER1
  6
CONTINUOUS
 62
     0
 10
16.3578787641819403
 20
1.7860619515673031
 30
0.0
 11
16.75
 21
1.968911086754465
 31
0.0
  0
LINE
  5
48C
  8
LAYER1
  6
CONTINUOUS
 62
     0
 10
18.9582545584080613
 20
1.968911086754465
 30
0.0
 11
18.8302222155948904
 21
1.7860619515673031
 31
0.0
  0
LINE
  5
48D
  8
LAYER1
  6
CONTINUOUS
 62
     0
 10
1.169777784405108
 20
1.7860619515673031
 30
0.0
 11
1.0417454415919301
 21
1.968911086754465
 31
0.0
  0
LINE
  5
48E
  8
LAYER1
  6
CONTINUOUS
 62
     0
 10
3.2499999999999978
 20
1.968911086754465
 30
0.0
 11
3.6421212358180539
 21
1.7860619515673031
 31
0.0
  0
LINE
  5
48F
  8
LAYER1
  6
CONTINUOUS
 62
     0
 10
16.1970705016398391
 20
1.7110758272493209
 30
0.0
 11
16.3578787641819403
 21
1.7860619515673031
 31
0.0
  0
LINE
  5
490
  8
LAYER1
  6
CONTINUOUS
 62
     0
 10
18.8302222155948904
 20
1.7860619515673031
 30
0.0
 11
18.7552360912768989
 21
1.7110758272493209
 31
0.0
  0
LINE
  5
491
  8
LAYER1
  6
CONTINUOUS
 62
     0
 10
1.24476390872309
 20
1.7110758272493209
 30
0.0
 11
1.169777784405108
 21
1.7860619515673031
 31
0.0
  0
LINE
  5
492
  8
LAYER1
  6
CONTINUOUS
 62
     0
 10
3.6421212358180539
 20
1.7860619515673031
 30
0.0
 11
3.8029294983601569
 21
1.7110758272493209
 31
0.0
  0
LINE
  5
493
  8
LAYER1
  6
CONTINUOUS
 62
     0
 10
15.60776862183425
 20
1.5531728644572711
 30
0.0
 11
16.1970705016398391
 21
1.7110758272493209
 31
0.0
  0
LINE
  5
494
  8
LAYER1
  6
CONTINUOUS
 62
     0
 10
18.7552360912768989
 20
1.7110758272493209
 30
0.0
 11
18.5973331284848484
 21
1.5531728644572711
 31
0.0
  0
LINE
  5
495
  8
LAYER1
  6
CONTINUOUS
 62
     0
 10
1.4026668715151389
 20
1.5531728644572711
 30
0.0
 11
1.24476390872309
 21
1.7110758272493209
 31
0.0
  0
LINE
  5
496
  8
LAYER1
  6
CONTINUOUS
 62
     0
 10
3.8029294983601578
 20
1.7110758272493209
 30
0.0
 11
4.3922313781657438
 21
1.5531728644572711
 31
0.0
  0
LINE
  5
497
  8
LAYER1
  6
CONTINUOUS
 62
     0
 10
15.0
 20
1.5
 30
0.0
 11
15.60776862183425
 21
1.5531728644572711
 31
0.0
  0
LINE
  5
498
  8
LAYER1
  6
CONTINUOUS
 62
     0
 10
18.5973331284848484
 20
1.5531728644572711
 30
0.0
 11
18.5441602640275818
 21
1.5
 31
0.0
  0
LINE
  5
499
  8
LAYER1
  6
CONTINUOUS
 62
     0
 10
1.4558397359724109
 20
1.5
 30
0.0
 11
1.4026668715151389
 21
1.5531728644572711
 31
0.0
  0
LINE
  5
49A
  8
LAYER1
  6
CONTINUOUS
 62
     0
 10
4.3922313781657536
 20
1.5531728644572711
 30
0.0
 11
4.9999999999999956
 21
1.5
 31
0.0
  0
LINE
  5
49B
  8
LAYER1
  6
CONTINUOUS
 62
     0
 10
1.7860619515673011
 20
1.16977778440511
 30
0.0
 11
1.4558397359724109
 21
1.5
 31
0.0
  0
LINE
  5
49C
  8
LAYER1
  6
CONTINUOUS
 62
     0
 10
18.5441602640275818
 20
1.5
 30
0.0
 11
18.2139380484326914
 21
1.16977778440511
 31
0.0
  0
LINE
  5
49D
  8
LAYER1
  6
CONTINUOUS
 62
     0
 10
2.4999999999999978
 20
0.6698729810778074
 30
0.0
 11
1.7860619515673011
 21
1.16977778440511
 31
0.0
  0
LINE
  5
49E
  8
LAYER1
  6
CONTINUOUS
 62
     0
 10
18.2139380484326914
 20
1.16977778440511
 30
0.0
 11
17.5
 21
0.6698729810778074
 31
0.0
  0
LINE
  5
49F
  8
LAYER1
  6
CONTINUOUS
 62
     0
 10
3.2898992833716538
 20
0.3015368960704583
 30
0.0
 11
2.4999999999999978
 21
0.6698729810778074
 31
0.0
  0
LINE
  5
4A0
  8
LAYER1
  6
CONTINUOUS
 62
     0
 10
17.5
 20
0.6698729810778074
 30
0.0
 11
16.7101007166283395
 21
0.3015368960704583
 31
0.0
  0
LINE
  5
4A1
  8
LAYER1
  6
CONTINUOUS
 62
     0
 10
4.1317591116653469
 20
0.0759612349389602
 30
0.0
 11
3.289899283371656
 21
0.3015368960704583
 31
0.0
  0
LINE
  5
4A2
  8
LAYER1
  6
CONTINUOUS
 62
     0
 10
16.7101007166283395
 20
0.3015368960704583
 30
0.0
 11
15.8682408883346504
 21
0.0759612349389602
 31
0.0
  0
LINE
  5
4A3
  8
LAYER1
  6
CONTINUOUS
 62
     0
 10
4.9999999999999947
 20
0.0
 30
0.0
 11
4.131759111665354
 21
0.0759612349389602
 31
0.0
  0
LINE
  5
4A4
  8
LAYER1
  6
CONTINUOUS
 62
     0
 10
15.8682408883346504
 20
0.0759612349389602
 30
0.0
 11
15.0
 21
0.0
 31
0.0
  0
ENDBLK
  5
4A6
  8
0
  0
ENDSEC
  0
SECTION
  2
ENTITIES
  0
LINE
  5
275
  8
0
 10
0.0
 20
0.0
 30
0.0
 11
0.0
 21
0.0
 31
0.0
  0
INSERT
  5
287
  8
LAYER1
  2
*U2
 10
0.0
 20
0.0
 30
0.0
  0
POLYLINE
  5
308
  8
0
 66
     1
 10
0.0
 20
0.0
 30
0.0
 70
     1
  0
VERTEX
  5
38A
  8
0
 10
15.0
 20
20.0
 30
0.0
  0
VERTEX
  5
38B
  8
0
 10
4.9999999999999991
 20
20.0
 30
0.0
 42
0.4142135623730951
  0
VERTEX
  5
38C
  8
0
 10
-0.0000000000000009
 20
15.0
 30
0.0
  0
VERTEX
  5
38D
  8
0
 10
-0.0000000000000028
 20
5.0
 30
0.0
 42
0.4142135623730951
  0
VERTEX
  5
38E
  8
0
 10
4.9999999999999947
 20
0.0
 30
0.0
  0
VERTEX
  5
38F
  8
0
 10
15.0
 20
0.0
 30
0.0
 42
0.4142135623730951
  0
VERTEX
  5
390
  8
0
 10
20.0
 20
5.0
 30
0.0
  0
VERTEX
  5
391
  8
0
 10
20.0
 20
15.0
 30
0.0
 42
0.4142135623730951
  0
SEQEND
  5
392
  8
0
  0
POLYLINE
  5
309
  8
0
 66
     1
 10
0.0
 20
0.0
 30
0.0
 70
     1
  0
VERTEX
  5
393
  8
0
 10
1.499999999999996
 20
5.0
 30
0.0
 42
0.4142135623730951
  0
VERTEX
  5
394
  8
0
 10
4.9999999999999956
 20
1.5
 30
0.0
  0
VERTEX
  5
395
  8
0
 10
15.0
 20
1.5
 30
0.0
 42
0.4142135623730951
  0
VERTEX
  5
396
  8
0
 10
18.5
 20
5.0
 30
0.0
  0
VERTEX
  5
397
  8
0
 10
18.5
 20
15.0
 30
0.0
 42
0.4142135623730951
  0
VERTEX
  5
398
  8
0
 10
15.0
 20
18.5
 30
0.0
  0
VERTEX
  5
399
  8
0
 10
4.9999999999999991
 20
18.5
 30
0.0
 42
0.4142135623730951
  0
VERTEX
  5
39A
  8
0
 10
1.4999999999999989
 20
15.0
 30
0.0
  0
SEQEND
  5
39B
  8
0
  0
INSERT
  5
324
  8
LAYER1
  6
CONTINUOUS
 62
     0
  2
*U3
 10
0.0
 20
0.0
 30
0.0
1001
GRADIENTCOLOR1ACI
1070
     5
1001
GRADIENTCOLOR2ACI
1070
     2
1001
ACAD
1002
{
1000
R14_HATCH_DATA
1000
324
1011
1.0
1021
0.0
1031
0.0
1021
0.0
1031
0.0
1011
0.0
1021
0.0
1031
0.0
1021
1.0
1031
0.0
1011
0.0
1021
0.0
1031
0.0
1021
0.0
1031
1.0
1040
0.0
1010
0.0
1020
0.0
1030
1.0
1000
SOLID
1070
     1
1070
     1
1071
        2
1071
        1
1071
        8
1070
     1
1040
15.0
1040
20.0
1040
5.0
1040
20.0
1070
     2
1040
4.9999999999999991
1040
15.0
1040
5.0
1040
1.5707963267948959
1040
3.1415926535897931
1070
     1
1070
     1
1040
-0.0000000000000009
1040
15.0
1040
-0.0000000000000028
1040
5.0
1070
     2
1040
4.9999999999999956
1040
4.9999999999999991
1040
4.9999999999999991
1040
3.1415926535897931
1040
4.7123889803846888
1070
     1
1070
     1
1040
4.9999999999999947
1040
0.0
1040
15.0
1040
0.0
1070
     2
1040
15.0
1040
5.0
1040
5.0
1040
4.7123889803846888
1040
6.2831853071795862
1070
     1
1070
     1
1040
20.0
1040
5.0
1040
20.0
1040
15.0
1070
     2
1040
15.0
1040
15.0
1040
5.0
1040
0.0000000000000004
1040
1.5707963267948959
1070
     1
1071
        1
1005
308
1071
       16
1071
        8
1070
     2
1040
4.9999999999999956
1040
5.0
1040
3.5
1040
3.1415926535897931
1040
4.7123889803846888
1070
     1
1070
     1
1040
4.9999999999999956
1040
1.5
1040
15.0
1040
1.5
1070
     2
1040
15.0
1040
5.0
1040
3.5
1040
4.7123889803846888
1040
6.2831853071795862
1070
     1
1070
     1
1040
18.5
1040
5.0
1040
18.5
1040
15.0
1070
     2
1040
15.0
1040
15.0
1040
3.5
1040
0.0000000000000005
1040
1.5707963267948959
1070
     1
1070
     1
1040
15.0
1040
18.5
1040
5.0
1040
18.5
1070
     2
1040
4.9999999999999991
1040
15.0
1040
3.5
1040
1.5707963267948959
1040
3.1415926535897931
1070
     1
1070
     1
1040
1.4999999999999989
1040
15.0
1040
1.499999999999996
1040
5.0
1071
        1
1005
309
1070
     1
1070
     1
1071
        1
1040
0.0
1040
0.0
1040
0.0
1002
}
  0
ENDSEC
  0
EOF
